<svg width="37" height="37" viewBox="0 0 37 37" fill="none" xmlns="http://www.w3.org/2000/svg">
<path d="M35.375 18.5C35.3803 21.8502 34.3839 25.1254 32.5138 27.905C30.9714 30.2056 28.8859 32.0908 26.4417 33.3937C23.9974 34.6966 21.2698 35.3771 18.5 35.375C15.7302 35.3771 13.0026 34.6966 10.5583 33.3937C8.1141 32.0908 6.02859 30.2056 4.48625 27.905C3.01762 25.7158 2.08232 23.2129 1.75532 20.5971C1.42833 17.9812 1.71874 15.3252 2.60328 12.8418C3.48781 10.3584 4.94187 8.11679 6.84888 6.29666C8.75589 4.47653 11.0628 3.1285 13.5847 2.36063C16.1066 1.59276 18.7733 1.42642 21.3711 1.87494C23.9689 2.32346 26.4254 3.37436 28.5438 4.9434C30.6622 6.51245 32.3836 8.55598 33.5699 10.9102C34.7562 13.2644 35.3744 15.8638 35.375 18.5Z" stroke="black" stroke-width="2"/>
<path d="M21.3127 12.875C21.3127 13.6209 21.0164 14.3363 20.489 14.8637C19.9615 15.3912 19.2461 15.6875 18.5002 15.6875V17.5625C19.1158 17.5625 19.7253 17.4413 20.294 17.2057C20.8628 16.9701 21.3795 16.6248 21.8148 16.1896C22.2501 15.7543 22.5953 15.2375 22.8309 14.6688C23.0665 14.1001 23.1877 13.4906 23.1877 12.875H21.3127ZM18.5002 15.6875C17.7543 15.6875 17.0389 15.3912 16.5115 14.8637C15.984 14.3363 15.6877 13.6209 15.6877 12.875H13.8127C13.8127 13.4906 13.934 14.1001 14.1695 14.6688C14.4051 15.2375 14.7504 15.7543 15.1857 16.1896C16.0647 17.0686 17.257 17.5625 18.5002 17.5625V15.6875ZM15.6877 12.875C15.6877 12.1291 15.984 11.4137 16.5115 10.8863C17.0389 10.3588 17.7543 10.0625 18.5002 10.0625V8.1875C17.257 8.1875 16.0647 8.68136 15.1857 9.56044C14.3066 10.4395 13.8127 11.6318 13.8127 12.875H15.6877ZM18.5002 10.0625C19.2461 10.0625 19.9615 10.3588 20.489 10.8863C21.0164 11.4137 21.3127 12.1291 21.3127 12.875H23.1877C23.1877 11.6318 22.6939 10.4395 21.8148 9.56044C20.9357 8.68136 19.7434 8.1875 18.5002 8.1875V10.0625ZM5.68646 29.48L4.78646 29.2138L4.64209 29.7031L4.97396 30.0912L5.68646 29.48ZM31.314 29.48L32.0265 30.0912L32.3583 29.7031L32.2121 29.2138L31.314 29.48ZM12.8752 25.0625H24.1252V23.1875H12.8752V25.0625ZM12.8752 23.1875C11.0581 23.1872 9.28939 23.7736 7.83232 24.8594C6.37524 25.9452 5.30576 27.4724 4.78646 29.2138L6.58459 29.7481C6.98879 28.3939 7.81939 27.2063 8.95281 26.362C10.0862 25.5178 11.4619 25.062 12.8752 25.0625V23.1875ZM18.5002 34.4375C16.2001 34.44 13.9268 33.9433 11.8373 32.9819C9.74771 32.0205 7.89163 30.6172 6.39709 28.8687L4.97396 30.0912C6.64469 32.0445 8.71916 33.6123 11.0543 34.6863C13.3895 35.7603 15.9299 36.3152 18.5002 36.3125V34.4375ZM24.1252 25.0625C25.5387 25.0621 26.9146 25.5182 28.0481 26.3628C29.1815 27.2074 30.012 28.3954 30.4158 29.75L32.2121 29.2138C31.6928 27.4724 30.6252 25.9452 29.1681 24.8594C27.711 23.7736 25.9424 23.1872 24.1252 23.1875V25.0625ZM30.6033 28.8687C29.1088 30.6172 27.2527 32.0205 25.1632 32.9819C23.0736 33.9433 20.8003 34.44 18.5002 34.4375V36.3125C21.0706 36.3152 23.6109 35.7603 25.9461 34.6863C28.2813 33.6123 30.3557 32.0445 32.0265 30.0912L30.6033 28.8687Z" fill="black"/>
</svg>
