<svg xmlns="http://www.w3.org/2000/svg" width="30" height="30" viewBox="0 0 30 30" fill="none">
  <path d="M20.6254 8.25C20.6254 5.25 18.1254 2.75 15.0004 2.75C11.8754 2.75 9.37541 5.25 9.37541 8.25C9.37541 11.25 11.8754 13.75 15.0004 13.75C18.1254 13.75 20.6254 11.25 20.6254 8.25ZM11.8754 8.25C11.8754 6.625 13.2504 5.25 15.0004 5.25C16.7504 5.25 18.1254 6.625 18.1254 8.25C18.1254 9.875 16.7504 11.25 15.0004 11.25C13.2504 11.25 11.8754 9.875 11.8754 8.25ZM5.75041 20.375L5.12541 22.75C4.75041 23.875 5.00041 25.125 5.75041 26.125C6.50041 27 7.50041 27.5 8.75041 27.5H21.2504C22.3754 27.5 23.5004 27 24.1254 26C24.8754 25 25.1254 23.75 24.7504 22.625L24.1254 20.25C23.3754 17.125 20.6254 15 17.5004 15H12.5004C9.37541 15 6.62541 17.125 5.75041 20.375ZM7.50041 23.375L8.12541 21C8.75041 18.875 10.5004 17.5 12.5004 17.5H17.5004C19.5004 17.5 21.2504 18.875 21.8754 21L22.5004 23.375C22.6254 23.75 22.5004 24.25 22.2504 24.625C22.1254 24.75 21.7504 25 21.2504 25H8.75041C8.25041 25 8.00041 24.75 7.87541 24.5C7.50041 24.25 7.37541 23.75 7.50041 23.375Z" fill="black"/>
</svg>