<svg width="35" height="35" viewBox="0 0 35 35" fill="none" xmlns="http://www.w3.org/2000/svg">
<path fill-rule="evenodd" clip-rule="evenodd" d="M5.62144 5.45611e-06L5.625 0H29.375V1.34615L29.3786 5.45611e-06C30.8682 0.00456926 32.2955 0.64385 33.3488 1.77818C34.4021 2.91251 34.9958 4.44968 35 6.05386L35 6.05769V22.2115L35 22.2154C34.9958 23.8195 34.4021 25.3567 33.3488 26.491C32.2955 27.6254 30.8682 28.2646 29.3786 28.2692L29.375 28.2692H16.6989L9.55047 34.6878C9.1779 35.0223 8.65926 35.0945 8.21995 34.873C7.78064 34.6514 7.5 34.1762 7.5 33.6538V28.2692H5.625L5.62144 28.2692C4.13185 28.2646 2.70447 27.6254 1.65117 26.491C0.597861 25.3567 0.00424288 23.8195 5.06639e-06 22.2154L0 22.2115V6.05769L5.06639e-06 6.05386C0.00424288 4.44968 0.59786 2.91251 1.65117 1.77818C2.70447 0.643849 4.13185 0.00456926 5.62144 5.45611e-06ZM16.8732 28.1127C16.8729 28.113 16.8726 28.1132 16.8723 28.1135L16.8732 28.1127ZM29.3731 2.69231H5.62692C4.79849 2.69531 4.00476 3.05104 3.41893 3.68193C2.83311 4.31281 2.50279 5.1676 2.5 6.05976V22.2095C2.50279 23.1016 2.83311 23.9564 3.41893 24.5873C4.00478 25.2182 4.79855 25.5739 5.62701 25.5769H8.75C9.44036 25.5769 10 26.1796 10 26.9231V30.7788L15.2706 26.0464C15.2708 26.0461 15.2711 26.0459 15.2714 26.0456C15.6085 25.7428 16.0336 25.5769 16.4727 25.5769C16.4727 25.5769 16.4728 25.5769 16.4729 25.5769H29.373C30.2014 25.5739 30.9952 25.2182 31.5811 24.5873C32.1669 23.9564 32.4972 23.1015 32.5 22.2094V6.05986C32.4972 5.16767 32.1669 4.31284 31.5811 3.68193C30.9952 3.05104 30.2015 2.69531 29.3731 2.69231Z" fill="#21272A"/>
</svg>
