<svg width="40" height="40" viewBox="0 0 40 40" fill="none" xmlns="http://www.w3.org/2000/svg">
<path d="M23.1673 30.9167L23.0007 31.0833L22.8173 30.9167C14.9007 23.7333 9.66732 18.9833 9.66732 14.1667C9.66732 10.8333 12.1673 8.33333 15.5007 8.33333C18.0673 8.33333 20.5673 10 21.4507 12.2667H24.5507C25.434 10 27.934 8.33333 30.5007 8.33333C33.834 8.33333 36.334 10.8333 36.334 14.1667C36.334 18.9833 31.1007 23.7333 23.1673 30.9167ZM30.5007 5C27.6007 5 24.8173 6.35 23.0007 8.46667C21.184 6.35 18.4007 5 15.5007 5C10.3673 5 6.33398 9.01667 6.33398 14.1667C6.33398 20.45 12.0007 25.6 20.584 33.3833L23.0007 35.5833L25.4173 33.3833C34.0007 25.6 39.6673 20.45 39.6673 14.1667C39.6673 9.01667 35.634 5 30.5007 5Z" fill="black"/>
</svg>
