<svg width="25" height="26" viewBox="0 0 25 26" fill="none" xmlns="http://www.w3.org/2000/svg">
<path d="M21.0938 5.57812H3.90627C3.59547 5.57812 3.2974 5.70159 3.07763 5.92136C2.85786 6.14113 2.7344 6.4392 2.7344 6.75V22.375C2.73301 22.5984 2.79612 22.8175 2.91616 23.006C3.03621 23.1945 3.20808 23.3443 3.41116 23.4375C3.56643 23.5091 3.7353 23.5464 3.90627 23.5469C4.18142 23.5466 4.44753 23.4486 4.65725 23.2705L7.95803 20.4219H21.0938C21.4046 20.4219 21.7026 20.2984 21.9224 20.0786C22.1422 19.8589 22.2656 19.5608 22.2656 19.25V6.75C22.2656 6.4392 22.1422 6.14113 21.9224 5.92136C21.7026 5.70159 21.4046 5.57812 21.0938 5.57812ZM21.4844 19.25C21.4844 19.3536 21.4432 19.453 21.37 19.5262C21.2967 19.5995 21.1974 19.6406 21.0938 19.6406H7.81252C7.71825 19.6412 7.62737 19.6759 7.55666 19.7383L4.15627 22.6738C4.09932 22.7213 4.03004 22.7515 3.95653 22.7611C3.88302 22.7706 3.80832 22.759 3.74114 22.7277C3.67396 22.6964 3.61709 22.6466 3.57716 22.5841C3.53723 22.5216 3.5159 22.4491 3.51565 22.375V6.75C3.51565 6.6464 3.5568 6.54704 3.63006 6.47379C3.70332 6.40053 3.80267 6.35938 3.90627 6.35938H21.0938C21.1974 6.35938 21.2967 6.40053 21.37 6.47379C21.4432 6.54704 21.4844 6.6464 21.4844 6.75V19.25Z" fill="currentColor"/>
</svg>
