<svg width="24" height="24" viewBox="0 0 24 24" fill="none" xmlns="http://www.w3.org/2000/svg">
<path fill-rule="evenodd" clip-rule="evenodd" d="M18.599 7.03716C18.5708 7.03157 18.5418 7.03252 18.514 7.03994L10.33 9.22811C10.3265 9.22903 10.3231 9.22993 10.3196 9.2308C9.96866 9.31928 9.75 9.60227 9.75 9.93747V10.2187C9.75 10.6329 9.41421 10.9687 9 10.9687C8.58579 10.9687 8.25 10.6329 8.25 10.2187V9.93747C8.25 8.88345 8.96607 8.02771 9.94721 7.77776L18.1263 5.59093C18.1263 5.59091 18.1264 5.5909 18.1264 5.59089C18.376 5.52412 18.6376 5.51556 18.8911 5.56587C19.1446 5.61619 19.3831 5.72406 19.5883 5.88116C19.7935 6.03827 19.9599 6.2404 20.0746 6.47198C20.1894 6.70356 20.2493 6.9584 20.25 7.21683L20.25 7.21872V8.24997C20.25 8.66418 19.9142 8.99997 19.5 8.99997C19.0858 8.99997 18.75 8.66418 18.75 8.24997V7.22005C18.7498 7.19152 18.7432 7.1634 18.7305 7.13784C18.7178 7.11211 18.6993 7.08965 18.6765 7.07219C18.6537 7.05473 18.6272 7.04275 18.599 7.03716Z" fill="#21272A"/>
<path fill-rule="evenodd" clip-rule="evenodd" d="M18.7146 1.54404C18.8947 1.49559 19.0835 1.48912 19.2665 1.52512C19.4496 1.56115 19.622 1.63873 19.7704 1.75189C19.9187 1.86505 20.0391 2.01076 20.1223 2.1778C20.2054 2.34484 20.2491 2.52874 20.25 2.71533L20.25 2.71879V17.6222C20.25 18.6119 19.6119 19.4303 18.7176 19.736L17.6938 20.1083C17.6882 20.1104 17.6825 20.1124 17.6768 20.1143C15.9637 20.691 14.252 19.4146 14.25 17.6254C14.2465 17.1352 14.3988 16.6565 14.685 16.2584C14.9697 15.8623 15.3722 15.5663 15.8349 15.4127L18.2173 14.5649C18.2213 14.5634 18.2254 14.562 18.2295 14.5606C18.5591 14.4497 18.75 14.1795 18.75 13.8722V3.0878L9.76504 5.50347C9.76084 5.50494 9.75715 5.50763 9.75447 5.5112C9.75151 5.51515 9.74993 5.51996 9.74997 5.5249C9.74998 5.52616 9.74999 5.52742 9.75 5.52868C9.75 5.52955 9.75 5.53042 9.75 5.53129V19.875C9.75 20.8648 9.11216 21.6835 8.21736 21.9889L7.19381 22.3611C7.18793 22.3633 7.18202 22.3653 7.17609 22.3673C5.48908 22.9334 3.75 21.6733 3.75 19.875C3.75 18.8968 4.30261 17.9993 5.28855 17.6654L7.72342 16.8225C7.72459 16.8221 7.72577 16.8217 7.72695 16.8213L7.72946 16.8205C8.05495 16.7109 8.25 16.4365 8.25 16.125V5.53396C8.24798 5.20141 8.3549 4.8773 8.55447 4.61121C8.75479 4.34411 9.03735 4.15027 9.35864 4.05953C9.36065 4.05896 9.36267 4.0584 9.36468 4.05785C9.36571 4.05757 9.36674 4.05729 9.36777 4.05701L18.7144 1.54412C18.7145 1.54409 18.7146 1.54406 18.7146 1.54404ZM8.25 18.2275C8.23717 18.2321 8.2243 18.2366 8.21136 18.241L5.77658 19.0838C5.77468 19.0844 5.77278 19.0851 5.77088 19.0857C5.45749 19.1914 5.25 19.4687 5.25 19.875C5.25 20.6595 5.99169 21.1769 6.69116 20.9478L7.71244 20.5764C7.71809 20.5744 7.72376 20.5724 7.72946 20.5705C8.05509 20.4609 8.25 20.1868 8.25 19.875V18.2275ZM19.1044 2.99252C19.1043 2.99255 19.1042 2.99257 19.1041 2.9926L19.1044 2.99252ZM18.75 15.9677C18.7383 15.9719 18.7265 15.976 18.7147 15.98L16.3296 16.8288C16.3235 16.831 16.3173 16.8331 16.3112 16.8351C16.1469 16.8888 16.0039 16.9934 15.903 17.1338C15.8021 17.2742 15.7485 17.443 15.75 17.6159C15.75 17.618 15.75 17.6201 15.75 17.6222C15.75 18.4142 16.479 18.9295 17.1907 18.6952L18.2124 18.3236C18.2179 18.3216 18.2234 18.3197 18.229 18.3178C18.5553 18.2077 18.75 17.9333 18.75 17.6222V15.9677Z" fill="#21272A"/>
</svg>
