<svg width="24" height="24" viewBox="0 0 24 24" fill="none" xmlns="http://www.w3.org/2000/svg">
<path fill-rule="evenodd" clip-rule="evenodd" d="M18.9183 1.6615C19.9243 1.48296 20.8873 1.44368 21.6691 1.63438C21.8447 1.67657 22.0049 1.76768 22.131 1.89718C22.2556 2.02518 22.3418 2.18548 22.3799 2.35985C22.5635 3.16478 22.5254 4.13589 22.3463 5.14959C22.1649 6.17616 21.8298 7.29708 21.3763 8.42227C20.4726 10.6645 19.0699 12.9937 17.3795 14.6752C16.8827 15.1751 16.3503 15.638 15.7865 16.0603C15.8235 16.9806 15.7185 17.9329 15.3434 18.7937L15.343 18.7945C14.7353 20.1845 13.6404 21.0573 12.5858 21.5993C11.5343 22.1397 10.4775 22.376 9.85032 22.4768C9.67295 22.5055 9.49137 22.493 9.31961 22.4402C9.14785 22.3875 8.9905 22.296 8.85974 22.1728C8.72898 22.0496 8.62829 21.898 8.56547 21.7297C8.50266 21.5613 8.47938 21.3808 8.49746 21.2021C8.49767 21.1999 8.49789 21.1978 8.49813 21.1957L8.82851 18.1854C8.79505 18.1821 8.76161 18.1786 8.72818 18.1748C8.36006 18.1369 8.01643 17.9725 7.75581 17.7097C7.75521 17.7091 7.75462 17.7085 7.75402 17.7079L6.28878 16.2426C6.28817 16.242 6.28757 16.2414 6.28697 16.2408C6.02425 15.9804 5.85989 15.6369 5.82179 15.269C5.81789 15.2338 5.81419 15.1987 5.8107 15.1635L2.79768 15.4943L2.79458 15.4946L2.79226 15.4948C2.61327 15.5132 2.43247 15.49 2.26386 15.4273C2.09524 15.3645 1.94336 15.2637 1.81997 15.1327C1.69659 15.0018 1.605 14.8442 1.55232 14.6722C1.49965 14.5001 1.48729 14.3183 1.51622 14.1407L1.51644 14.1393C1.61942 13.5141 1.85679 12.4589 2.39799 11.408C2.9406 10.3544 3.81309 9.26025 5.20209 8.64952L5.20408 8.64865C6.0652 8.27299 7.02259 8.16817 7.9486 8.2086C8.37098 7.64692 8.83355 7.11637 9.33275 6.62118C11.0192 4.93637 13.3836 3.53435 15.6405 2.63121C16.7733 2.17792 17.898 1.84259 18.9183 1.6615ZM16.1978 4.02385C14.0753 4.87321 11.8992 6.17716 10.3921 7.68317L10.3901 7.68516C9.85178 8.21903 9.36095 8.79871 8.92313 9.41765C8.76868 9.636 8.50963 9.75557 8.24326 9.73147C7.33032 9.64888 6.48578 9.72634 5.80493 10.0231C4.82771 10.453 4.17282 11.2379 3.73154 12.0948C3.3916 12.7548 3.19298 13.4309 3.07868 13.9544L6.43415 13.586C6.64485 13.5629 6.85549 13.63 7.01399 13.7707C7.17248 13.9115 7.26402 14.1127 7.26596 14.3247C7.26836 14.5859 7.28404 14.8468 7.31295 15.1064C7.31324 15.109 7.31352 15.1116 7.31378 15.1142C7.31613 15.1375 7.32654 15.1593 7.34321 15.1758L7.34632 15.1789L8.81773 16.6503L8.82078 16.6534C8.83728 16.67 8.85907 16.6804 8.88242 16.6828C8.88523 16.6831 8.88804 16.6834 8.89084 16.6837C9.14882 16.7124 9.4081 16.7281 9.66767 16.7307C9.87954 16.7327 10.0807 16.8243 10.2213 16.9828C10.362 17.1413 10.429 17.3518 10.4059 17.5624L10.0379 20.9156C10.5613 20.8029 11.239 20.605 11.9002 20.2652C12.7576 19.8245 13.5415 19.1701 13.9684 18.1942C14.2659 17.5113 14.3432 16.6706 14.2649 15.7604C14.242 15.4946 14.362 15.2367 14.5801 15.083C15.2007 14.6457 15.7819 14.1549 16.3171 13.6164L16.3203 13.6132C17.8345 12.1074 19.1376 9.96406 19.9851 7.86151C20.4073 6.81398 20.7092 5.79416 20.8692 4.88863C20.9989 4.15463 21.0296 3.5271 20.9739 3.03295C20.5085 2.98046 19.9024 3.01029 19.1804 3.13842C18.28 3.29823 17.255 3.60081 16.1978 4.02385ZM9.61194 20.9959C9.61164 20.9959 9.61134 20.996 9.61105 20.996L9.61173 20.9959C9.6118 20.9959 9.61187 20.9959 9.61194 20.9959ZM15.4152 7.34873C15.1677 7.34873 14.9257 7.42214 14.7199 7.55968C14.514 7.69721 14.3536 7.8927 14.2589 8.12141C14.1642 8.35012 14.1394 8.60178 14.1877 8.84457C14.236 9.08736 14.3553 9.31036 14.5303 9.48538L13.9999 10.0159L14.5309 9.48601C14.647 9.60229 14.7848 9.69454 14.9365 9.75749C15.0883 9.82043 15.2509 9.85283 15.4152 9.85283C15.5795 9.85283 15.7421 9.82043 15.8939 9.75749C16.0456 9.69454 16.1834 9.60229 16.2995 9.48601L16.3001 9.48538C16.4752 9.31036 16.5944 9.08736 16.6427 8.84457C16.691 8.60178 16.6663 8.35012 16.5715 8.12141C16.4768 7.8927 16.3164 7.69721 16.1106 7.55968C15.9047 7.42214 15.6628 7.34873 15.4152 7.34873ZM13.4696 10.5459C13.0848 10.1612 12.8228 9.67099 12.7166 9.13733C12.6103 8.60356 12.6648 8.05028 12.873 7.54746C13.0813 7.04465 13.434 6.61487 13.8865 6.3125C14.339 6.01012 14.871 5.84873 15.4152 5.84873C15.9594 5.84873 16.4915 6.01012 16.944 6.3125C17.3965 6.61487 17.7491 7.04464 17.9574 7.54746C18.1656 8.05028 18.2201 8.60356 18.1139 9.13733C18.0077 9.67081 17.7458 10.1608 17.3613 10.5455C17.1059 10.8014 16.8026 11.0045 16.4686 11.143C16.1347 11.2815 15.7767 11.3528 15.4152 11.3528C15.0537 11.3528 14.6957 11.2815 14.3618 11.143C14.028 11.0045 13.7248 10.8017 13.4696 10.5459Z" fill="#21272A"/>
<path fill-rule="evenodd" clip-rule="evenodd" d="M5.88379 16.4086C5.93426 16.8197 5.64188 17.1939 5.23076 17.2444C4.92976 17.2814 4.6497 17.4177 4.43496 17.6318C4.36291 17.7045 4.2466 17.9037 4.13178 18.2797C4.02419 18.6319 3.94365 19.0508 3.88504 19.4664C3.84848 19.7257 3.82146 19.9763 3.8016 20.1984C4.02389 20.1785 4.27473 20.1515 4.53413 20.1149C4.94983 20.0562 5.36864 19.9756 5.72063 19.8679C6.09728 19.7527 6.29573 19.6362 6.36718 19.5647L6.36845 19.5634C6.58299 19.3498 6.71929 19.0701 6.75534 18.7695C6.80465 18.3582 7.17803 18.0648 7.5893 18.1141C8.00057 18.1634 8.29398 18.5368 8.24467 18.9481C8.16849 19.5833 7.88056 20.1743 7.42733 20.6258C7.0856 20.9673 6.59068 21.1704 6.15938 21.3023C5.70308 21.4419 5.19913 21.5359 4.74373 21.6001C4.28489 21.6649 3.85608 21.7021 3.54319 21.7232C3.38621 21.7337 3.25712 21.7403 3.16646 21.7443C3.1211 21.7463 3.08527 21.7476 3.0603 21.7485C3.04781 21.7489 3.03802 21.7492 3.0311 21.7494L3.0229 21.7497L3.01934 21.7498C3.01922 21.7498 3.01911 21.7498 3 21C2.25024 20.9809 2.25025 20.9808 2.25025 20.9807L2.25035 20.9771L2.25058 20.9689C2.25079 20.962 2.25109 20.9522 2.25152 20.9397C2.25237 20.9148 2.25371 20.879 2.2557 20.8336C2.25967 20.743 2.26627 20.614 2.27683 20.4571C2.29789 20.1443 2.33505 19.7157 2.39973 19.257C2.46393 18.8017 2.55782 18.2978 2.6972 17.8415C2.8291 17.4097 3.03203 16.9146 3.37299 16.5724L3.37426 16.5712C3.82568 16.1204 4.41478 15.8333 5.04799 15.7556C5.45912 15.7051 5.83332 15.9975 5.88379 16.4086ZM3 21L2.25024 20.9809C2.245 21.1864 2.32432 21.385 2.46967 21.5303C2.61501 21.6757 2.81363 21.755 3.01911 21.7498L3 21Z" fill="#21272A"/>
</svg>
