<svg width="30" height="30" viewBox="0 0 30 30" fill="none" xmlns="http://www.w3.org/2000/svg">
<path fill-rule="evenodd" clip-rule="evenodd" d="M13.5938 6.5625C13.2208 6.5625 12.8631 6.71066 12.5994 6.97438C12.3357 7.2381 12.1875 7.59579 12.1875 7.96875V10.3125C12.1875 10.8303 11.7678 11.25 11.25 11.25C10.7322 11.25 10.3125 10.8303 10.3125 10.3125V7.96875C10.3125 7.09851 10.6582 6.26391 11.2736 5.64856C11.8889 5.0332 12.7235 4.6875 13.5938 4.6875H22.9688C23.839 4.6875 24.6736 5.0332 25.2889 5.64856C25.9043 6.26391 26.25 7.09851 26.25 7.96875V22.0312C26.25 22.9015 25.9043 23.7361 25.2889 24.3514C24.6736 24.9668 23.839 25.3125 22.9688 25.3125H14.0625C13.1822 25.3125 12.2795 24.9646 11.5927 24.4265C10.9094 23.8911 10.3125 23.0595 10.3125 22.0312V19.6875C10.3125 19.1697 10.7322 18.75 11.25 18.75C11.7678 18.75 12.1875 19.1697 12.1875 19.6875V22.0312C12.1875 22.2973 12.3496 22.6376 12.7491 22.9505C13.1449 23.2607 13.6485 23.4375 14.0625 23.4375H22.9688C23.3417 23.4375 23.6994 23.2893 23.9631 23.0256C24.2268 22.7619 24.375 22.4042 24.375 22.0312V7.96875C24.375 7.59579 24.2268 7.2381 23.9631 6.97438C23.6994 6.71066 23.3417 6.5625 22.9688 6.5625H13.5938Z" fill="#21272A"/>
<path fill-rule="evenodd" clip-rule="evenodd" d="M16.2121 9.64959C16.5782 9.28347 17.1718 9.28347 17.5379 9.64959L22.2254 14.3371C22.5915 14.7032 22.5915 15.2968 22.2254 15.6629L17.5379 20.3504C17.1718 20.7165 16.5782 20.7165 16.2121 20.3504C15.846 19.9843 15.846 19.3907 16.2121 19.0246L20.2367 15L16.2121 10.9754C15.846 10.6093 15.846 10.0157 16.2121 9.64959Z" fill="#21272A"/>
<path fill-rule="evenodd" clip-rule="evenodd" d="M3.75 15C3.75 14.4822 4.16973 14.0625 4.6875 14.0625H20.625C21.1428 14.0625 21.5625 14.4822 21.5625 15C21.5625 15.5178 21.1428 15.9375 20.625 15.9375H4.6875C4.16973 15.9375 3.75 15.5178 3.75 15Z" fill="#21272A"/>
</svg>
