<svg width="24" height="18" viewBox="0 0 24 18" fill="none" xmlns="http://www.w3.org/2000/svg">
<path d="M15.7499 9C14.7842 9 13.8561 8.56875 13.1249 7.79062C12.4171 7.03125 11.9811 6.01406 11.9061 4.93125C11.8264 3.77812 12.178 2.71406 12.8952 1.94063C13.6124 1.17188 14.6249 0.75 15.7499 0.75C16.8655 0.75 17.878 1.17656 18.5952 1.94531C19.3217 2.72344 19.6733 3.78281 19.5889 4.92656C19.5092 6.00938 19.078 7.02656 18.3702 7.78594C17.6436 8.56875 16.7155 9 15.7499 9ZM15.7499 2.25C15.0467 2.25 14.4233 2.50312 13.9967 2.9625C13.5561 3.43594 13.3546 4.07812 13.4061 4.82344C13.4577 5.56406 13.7483 6.25781 14.2264 6.76875C14.6671 7.24219 15.2108 7.5 15.7499 7.5C16.2936 7.5 16.8327 7.2375 17.2733 6.76875C17.7514 6.25781 18.0421 5.56875 18.0936 4.82344C18.1452 4.10156 17.9342 3.44063 17.4936 2.97188C17.0671 2.50313 16.4436 2.25 15.7499 2.25Z" fill="#21272A"/>
<path d="M21.928 17.25H9.57179C9.16397 17.25 8.78897 17.0672 8.54054 16.7485C8.28272 16.4157 8.18897 15.9657 8.2921 15.5391C8.68585 13.9547 9.66554 12.6422 11.1187 11.7375C12.4077 10.936 14.053 10.4954 15.7452 10.4954C17.4702 10.4954 19.0733 10.9172 20.3718 11.7188C21.8296 12.6141 22.8093 13.936 23.203 15.5391C23.3062 15.9657 23.2124 16.4157 22.9546 16.7485C22.7109 17.0672 22.3358 17.25 21.928 17.25ZM9.7921 15.75H21.7124C20.939 12.9844 18.0374 12 15.7499 12C13.4718 12 10.5749 12.9844 9.7921 15.75Z" fill="#21272A"/>
<path d="M6.89044 9.18745C5.24044 9.18745 3.792 7.65464 3.65606 5.77026C3.58575 4.80464 3.88575 3.91401 4.49512 3.25776C5.09981 2.61089 5.94825 2.25464 6.88575 2.25464C7.81856 2.25464 8.667 2.61558 9.27169 3.26714C9.88575 3.92808 10.1857 4.8187 10.1154 5.77495C9.98887 7.65464 8.53575 9.18745 6.89044 9.18745ZM6.89044 3.74995C6.37481 3.74995 5.91544 3.93745 5.59669 4.27964C5.26856 4.6312 5.11387 5.10933 5.15606 5.66245C5.23575 6.75933 6.02794 7.68745 6.89044 7.68745C7.75294 7.68745 8.54981 6.75933 8.62481 5.66245C8.66231 5.12339 8.50294 4.63589 8.1795 4.28433C7.86075 3.93745 7.40137 3.74995 6.89044 3.74995Z" fill="#21272A"/>
<path d="M7.21879 15.75H1.95472C1.58441 15.75 1.24222 15.5812 1.01254 15.2953C0.778161 14.9953 0.693786 14.5828 0.787536 14.1984C1.11097 12.8906 1.91722 11.8125 3.11254 11.0718C4.16722 10.4203 5.50785 10.0593 6.88597 10.0593C8.06722 10.0593 9.07504 10.2562 9.96566 10.664C10.3407 10.8375 10.5094 11.2828 10.336 11.6578C10.1625 12.0328 9.71722 12.2015 9.34222 12.0281C8.65316 11.714 7.8516 11.5593 6.89066 11.5593C5.17972 11.5593 3.01879 12.2718 2.33441 14.2546H7.21879C7.63129 14.2546 7.96879 14.5921 7.96879 15.0046C7.96879 15.4171 7.63129 15.75 7.21879 15.75Z" fill="#21272A"/>
</svg>
