<svg width="50" height="50" viewBox="0 0 50 50" fill="none" xmlns="http://www.w3.org/2000/svg">
<path d="M19.7337 27.5167L31.117 34.15M31.1003 15.85L19.7337 22.4833M40.417 13.3333C40.417 16.0948 38.1784 18.3333 35.417 18.3333C32.6556 18.3333 30.417 16.0948 30.417 13.3333C30.417 10.5719 32.6556 8.33334 35.417 8.33334C38.1784 8.33334 40.417 10.5719 40.417 13.3333ZM20.417 25C20.417 27.7614 18.1784 30 15.417 30C12.6556 30 10.417 27.7614 10.417 25C10.417 22.2386 12.6556 20 15.417 20C18.1784 20 20.417 22.2386 20.417 25ZM40.417 36.6667C40.417 39.4281 38.1784 41.6667 35.417 41.6667C32.6556 41.6667 30.417 39.4281 30.417 36.6667C30.417 33.9052 32.6556 31.6667 35.417 31.6667C38.1784 31.6667 40.417 33.9052 40.417 36.6667Z" stroke="#131214" stroke-width="1.5" stroke-linecap="round" stroke-linejoin="round"/>
</svg>
