<svg width="26" height="26" viewBox="0 0 26 26" fill="none" xmlns="http://www.w3.org/2000/svg">
<path fill-rule="evenodd" clip-rule="evenodd" d="M12.1875 13C12.1875 13.4487 12.5513 13.8125 13 13.8125C13.4487 13.8125 13.8125 13.4487 13.8125 13C13.8125 12.5513 13.4487 12.1875 13 12.1875C12.5513 12.1875 12.1875 12.5513 12.1875 13ZM13 15.4375C11.6538 15.4375 10.5625 14.3462 10.5625 13C10.5625 11.6538 11.6538 10.5625 13 10.5625C14.3462 10.5625 15.4375 11.6538 15.4375 13C15.4375 14.3462 14.3462 15.4375 13 15.4375Z" fill="#21272A"/>
<path fill-rule="evenodd" clip-rule="evenodd" d="M12.1875 4.875C12.1875 5.32373 12.5513 5.6875 13 5.6875C13.4487 5.6875 13.8125 5.32373 13.8125 4.875C13.8125 4.42627 13.4487 4.0625 13 4.0625C12.5513 4.0625 12.1875 4.42627 12.1875 4.875ZM13 7.3125C11.6538 7.3125 10.5625 6.22119 10.5625 4.875C10.5625 3.52881 11.6538 2.4375 13 2.4375C14.3462 2.4375 15.4375 3.52881 15.4375 4.875C15.4375 6.22119 14.3462 7.3125 13 7.3125Z" fill="#21272A"/>
<path fill-rule="evenodd" clip-rule="evenodd" d="M12.1875 21.125C12.1875 21.5737 12.5513 21.9375 13 21.9375C13.4487 21.9375 13.8125 21.5737 13.8125 21.125C13.8125 20.6763 13.4487 20.3125 13 20.3125C12.5513 20.3125 12.1875 20.6763 12.1875 21.125ZM13 23.5625C11.6538 23.5625 10.5625 22.4712 10.5625 21.125C10.5625 19.7788 11.6538 18.6875 13 18.6875C14.3462 18.6875 15.4375 19.7788 15.4375 21.125C15.4375 22.4712 14.3462 23.5625 13 23.5625Z" fill="#21272A"/>
</svg>
