<svg width="27" height="28" viewBox="0 0 27 28" fill="none" xmlns="http://www.w3.org/2000/svg">
<path d="M16.875 19.625H22.5L20.9195 18.0445C20.4908 17.6158 20.25 17.0344 20.25 16.4283V12.875C20.25 9.93601 18.3717 7.43572 15.75 6.50909V6.125C15.75 4.88236 14.7426 3.875 13.5 3.875C12.2574 3.875 11.25 4.88236 11.25 6.125V6.50909C8.62832 7.43572 6.75 9.93601 6.75 12.875V16.4283C6.75 17.0344 6.50919 17.6158 6.08055 18.0445L4.5 19.625H10.125M16.875 19.625V20.75C16.875 22.614 15.364 24.125 13.5 24.125C11.636 24.125 10.125 22.614 10.125 20.75V19.625M16.875 19.625H10.125" stroke="#21272A" stroke-width="2" stroke-linecap="round" stroke-linejoin="round"/>
</svg>
