<svg width="30" height="30" viewBox="0 0 30 30" fill="none" xmlns="http://www.w3.org/2000/svg">
<path d="M13.75 16.875C13.75 16.875 13.9716 17.0508 14.6043 17.3965C15.2371 17.7422 15.9368 17.9478 16.656 17.9993C17.3752 18.0508 18.0971 17.947 18.7726 17.695C19.4482 17.443 20.0617 17.0486 20.5714 16.5387L23.5885 13.5217C24.5044 12.5733 25.0113 11.3031 24.9998 9.98469C24.9884 8.66626 24.4595 7.40508 23.5272 6.47278C22.5949 5.54048 21.3337 5.01165 20.0153 5.00019C18.6969 4.98873 17.4267 5.49557 16.4783 6.41153L14.7486 8.13123M16.25 13.125C16.25 13.125 16.0284 12.9291 15.3957 12.5834C14.7629 12.2377 14.0632 12.0321 13.344 11.9806C12.6248 11.9291 11.9029 12.0329 11.2274 12.2849C10.5518 12.5369 9.93832 12.9313 9.42855 13.4412L6.41153 16.4582C5.49557 17.4066 4.98873 18.6768 5.00019 19.9952C5.01165 21.3136 5.54048 22.5748 6.47278 23.5071C7.40508 24.4394 8.66626 24.9682 9.98469 24.9797C11.3031 24.9912 12.5733 24.4843 13.5217 23.5684L15.2414 21.8487" stroke="#131214" stroke-width="1.5" stroke-linecap="round" stroke-linejoin="round"/>
</svg>
