<svg width="30" height="30" viewBox="0 0 30 30" fill="none" xmlns="http://www.w3.org/2000/svg">
<path d="M23.2031 26.25C23.2031 26.4365 23.129 26.6153 22.9972 26.7472C22.8653 26.879 22.6865 26.9531 22.5 26.9531H7.5C7.31352 26.9531 7.13468 26.879 7.00282 26.7472C6.87095 26.6153 6.79688 26.4365 6.79688 26.25C6.79688 26.0635 6.87095 25.8847 7.00282 25.7528C7.13468 25.621 7.31352 25.5469 7.5 25.5469H22.5C22.6865 25.5469 22.8653 25.621 22.9972 25.7528C23.129 25.8847 23.2031 26.0635 23.2031 26.25ZM15 23.2031C16.9263 23.201 18.7731 22.4348 20.1352 21.0727C21.4973 19.7106 22.2635 17.8638 22.2656 15.9375V6.5625C22.2656 6.37602 22.1915 6.19718 22.0597 6.06532C21.9278 5.93345 21.749 5.85938 21.5625 5.85938C21.376 5.85938 21.1972 5.93345 21.0653 6.06532C20.9335 6.19718 20.8594 6.37602 20.8594 6.5625V15.9375C20.8594 17.4915 20.2421 18.9819 19.1432 20.0807C18.0444 21.1796 16.554 21.7969 15 21.7969C13.446 21.7969 11.9556 21.1796 10.8568 20.0807C9.75795 18.9819 9.14062 17.4915 9.14062 15.9375V6.5625C9.14062 6.37602 9.06655 6.19718 8.93468 6.06532C8.80282 5.93345 8.62398 5.85938 8.4375 5.85938C8.25102 5.85938 8.07218 5.93345 7.94032 6.06532C7.80845 6.19718 7.73438 6.37602 7.73438 6.5625V15.9375C7.73655 17.8638 8.50273 19.7106 9.86483 21.0727C11.2269 22.4348 13.0737 23.201 15 23.2031Z" fill="black"/>
</svg>
