<svg width="30" height="30" viewBox="0 0 30 30" fill="none" xmlns="http://www.w3.org/2000/svg">
<path d="M6.25 3.75H22.5C23.4946 3.75 24.4484 4.14509 25.1517 4.84835C25.8549 5.55161 26.25 6.50544 26.25 7.5V23.75C26.25 24.7446 25.8549 25.6984 25.1517 26.4017C24.4484 27.1049 23.4946 27.5 22.5 27.5H6.25C5.25544 27.5 4.30161 27.1049 3.59835 26.4017C2.89509 25.6984 2.5 24.7446 2.5 23.75V7.5C2.5 6.50544 2.89509 5.55161 3.59835 4.84835C4.30161 4.14509 5.25544 3.75 6.25 3.75ZM6.25 5C5.58696 5 4.95107 5.26339 4.48223 5.73223C4.01339 6.20107 3.75 6.83696 3.75 7.5V21.9875L9.1125 16.6125L12.2375 19.7375L18.4875 13.4875L25 20V7.5C25 6.83696 24.7366 6.20107 24.2678 5.73223C23.7989 5.26339 23.163 5 22.5 5H6.25ZM12.2375 21.5125L9.1125 18.3875L3.75 23.75C3.75 24.413 4.01339 25.0489 4.48223 25.5178C4.95107 25.9866 5.58696 26.25 6.25 26.25H22.5C23.163 26.25 23.7989 25.9866 24.2678 25.5178C24.7366 25.0489 25 24.413 25 23.75V21.7625L18.4875 15.2625L12.2375 21.5125ZM9.375 7.5C10.2038 7.5 10.9987 7.82924 11.5847 8.41529C12.1708 9.00134 12.5 9.7962 12.5 10.625C12.5 11.4538 12.1708 12.2487 11.5847 12.8347C10.9987 13.4208 10.2038 13.75 9.375 13.75C8.5462 13.75 7.75134 13.4208 7.16529 12.8347C6.57924 12.2487 6.25 11.4538 6.25 10.625C6.25 9.7962 6.57924 9.00134 7.16529 8.41529C7.75134 7.82924 8.5462 7.5 9.375 7.5ZM9.375 8.75C8.87772 8.75 8.40081 8.94754 8.04917 9.29917C7.69754 9.65081 7.5 10.1277 7.5 10.625C7.5 11.1223 7.69754 11.5992 8.04917 11.9508C8.40081 12.3025 8.87772 12.5 9.375 12.5C9.87228 12.5 10.3492 12.3025 10.7008 11.9508C11.0525 11.5992 11.25 11.1223 11.25 10.625C11.25 10.1277 11.0525 9.65081 10.7008 9.29917C10.3492 8.94754 9.87228 8.75 9.375 8.75Z" fill="black"/>
</svg>
