<svg width="22" height="22" viewBox="0 0 22 22" fill="none" xmlns="http://www.w3.org/2000/svg">
<path fill-rule="evenodd" clip-rule="evenodd" d="M7.34234 19.1171L6.32324 21.8H16.1524L15.1333 19.1171H7.34234ZM8.18234 16.4948H14.293L11.2378 8.39807L8.18234 16.4948Z" fill="black"/>
<path fill-rule="evenodd" clip-rule="evenodd" d="M19.7002 0.199951H2.3002C1.1452 0.199951 0.200195 1.14495 0.200195 2.29995V19.7C0.200195 20.855 1.1452 21.8 2.3002 21.8H2.9335L9.1771 5.97015C9.22577 5.811 9.32417 5.67164 9.45785 5.57251C9.59154 5.47338 9.75347 5.41971 9.9199 5.41935H12.5635C12.9091 5.41935 13.1989 5.64525 13.3021 5.95635H13.3075L19.5436 21.8H19.7002C20.8552 21.8 21.8002 20.855 21.8002 19.7V2.29995C21.8002 1.14495 20.8552 0.199951 19.7002 0.199951Z" fill="black"/>
</svg>
