<svg width="27" height="28" viewBox="0 0 27 28" fill="none" xmlns="http://www.w3.org/2000/svg">
<path fill-rule="evenodd" clip-rule="evenodd" d="M25.0244 6.61502C25.3751 6.92188 25.4106 7.45493 25.1037 7.80562L13.2912 21.3056C13.1375 21.4814 12.9177 21.5855 12.6843 21.5933C12.4509 21.6011 12.2248 21.5118 12.0596 21.3466L6.99713 16.2841C6.66762 15.9546 6.66762 15.4204 6.99713 15.0909C7.32663 14.7614 7.86087 14.7614 8.19037 15.0909L12.6152 19.5157L23.8338 6.6944C24.1406 6.3437 24.6737 6.30817 25.0244 6.61502Z" fill="#21272A"/>
<path fill-rule="evenodd" clip-rule="evenodd" d="M1.93463 15.0909C2.26413 14.7614 2.79837 14.7614 3.12787 15.0909L8.19037 20.1534C8.51988 20.4829 8.51988 21.0171 8.19037 21.3466C7.86087 21.6761 7.32663 21.6761 6.99713 21.3466L1.93463 16.2841C1.60512 15.9546 1.60512 15.4204 1.93463 15.0909Z" fill="#21272A"/>
<path fill-rule="evenodd" clip-rule="evenodd" d="M19.9607 6.61402C20.312 6.92023 20.3485 7.45322 20.0423 7.80447L12.8704 16.031C12.5642 16.3823 12.0312 16.4188 11.6799 16.1126C11.3287 15.8064 11.2922 15.2734 11.5984 14.9221L18.7703 6.69555C19.0765 6.3443 19.6095 6.3078 19.9607 6.61402Z" fill="#21272A"/>
</svg>
