<svg width="30" height="30" viewBox="0 0 30 30" fill="none" xmlns="http://www.w3.org/2000/svg">
<path d="M14.9876 19.2375C15.6026 19.2375 16.1174 18.7355 16.1174 18.1329V12.9723H21.4788C22.0815 12.9723 22.6092 12.4575 22.6092 11.842C22.6092 11.227 22.0815 10.725 21.4788 10.725H16.1174V5.60196C16.1174 4.99929 15.6026 4.50964 14.9871 4.50964C14.3721 4.50964 13.8701 4.99929 13.8701 5.60196V10.725H8.52098C7.9183 10.725 7.39062 11.227 7.39062 11.842C7.39062 12.4575 7.9183 12.9723 8.52098 12.9723H13.8701V18.1329C13.8701 18.7355 14.3721 19.2375 14.9876 19.2375ZM8.52152 25.4904H21.4788C22.0815 25.4904 22.6092 24.9761 22.6092 24.36C22.6092 23.745 22.0815 23.243 21.4788 23.243H8.52098C7.9183 23.243 7.39062 23.745 7.39062 24.3605C7.39062 24.9761 7.91884 25.4904 8.52152 25.4904Z" fill="black"/>
</svg>
