<svg width="30" height="30" viewBox="0 0 30 30" fill="none" xmlns="http://www.w3.org/2000/svg">
<path d="M10.3125 26.25H4.6875C4.1625 26.25 3.75 25.8375 3.75 25.3125V19.6875C3.75 19.4438 3.84375 19.2 4.03125 19.0312L13.4063 9.65625C13.7813 9.28125 14.3625 9.28125 14.7375 9.65625L20.3625 15.2812C20.7375 15.6562 20.7375 16.2375 20.3625 16.6125L10.9875 25.9875C10.8144 26.1641 10.5785 26.2652 10.3313 26.2688L10.3125 26.25ZM5.625 24.375H9.91875L18.3563 15.9375L14.0625 11.6438L5.625 20.0812V24.375ZM25.0688 10.5375L22.4813 13.125L16.8563 7.5L19.4438 4.9125C20.2313 4.125 21.2438 3.75 22.2563 3.75C23.2688 3.75 24.2813 4.125 25.0688 4.9125C26.625 6.46875 26.625 8.98125 25.0688 10.5375Z" fill="black"/>
<path d="M23.4375 15C23.3145 15.0014 23.1926 14.9772 23.0796 14.9288C22.9666 14.8803 22.865 14.8088 22.7812 14.7187L15.2812 7.2187C14.9063 6.8437 14.9063 6.26245 15.2812 5.88745C15.6562 5.51245 16.2375 5.51245 16.6125 5.88745L24.1125 13.3875C24.4875 13.7625 24.4875 14.3437 24.1125 14.7187C23.925 14.9062 23.6813 15 23.4563 15H23.4375Z" fill="black"/>
</svg>
