<svg width="30" height="30" viewBox="0 0 30 30" fill="none" xmlns="http://www.w3.org/2000/svg">
<path d="M7.5 5.9375C7.5 5.075 8.2 4.375 9.0625 4.375H15.3125C16.399 4.37584 17.4644 4.67463 18.3928 5.23887C19.3213 5.80311 20.0772 6.61118 20.5783 7.57516C21.0794 8.53914 21.3066 9.6221 21.235 10.7062C21.1635 11.7903 20.796 12.834 20.1725 13.7238C21.4566 14.3303 22.4959 15.3561 23.1191 16.6323C23.7423 17.9084 23.9124 19.3587 23.6012 20.7444C23.29 22.13 22.5162 23.3684 21.4072 24.2556C20.2982 25.1427 18.9202 25.6257 17.5 25.625H9.0625C8.2 25.625 7.5 24.925 7.5 24.0625V5.9375ZM10.625 16.25V22.5H17.5C18.3288 22.5 19.1237 22.1708 19.7097 21.5847C20.2958 20.9987 20.625 20.2038 20.625 19.375C20.625 18.5462 20.2958 17.7513 19.7097 17.1653C19.1237 16.5792 18.3288 16.25 17.5 16.25H10.625ZM10.625 13.125H15.3138C16.0597 13.1248 16.775 12.8284 17.3023 12.3008C17.8296 11.7732 18.1258 11.0578 18.1256 10.3119C18.1255 9.56595 17.829 8.85065 17.3014 8.32332C16.7739 7.79599 16.0584 7.49983 15.3125 7.5H10.625V13.125Z" fill="black"/>
</svg>
