<svg width="40" height="52" viewBox="0 0 40 52" fill="none" xmlns="http://www.w3.org/2000/svg">
<path d="M40 13.6522V3.56522C40 1.56522 38.3865 0 36.5181 0H3.56691C1.61362 0 0.0849609 1.56522 0.0849609 3.56522V32.8696H23.6943V38.2609H0.0849609V48.4348C0.0849609 50.4348 1.61362 52 3.56691 52H36.5181C38.4714 52 40 50.4348 40 48.4348V18.8696H16.3907V13.6522H40Z" fill="#7B4CFA"/>
<path d="M0.0849609 51.9131C7.21872 51.9131 14.3525 51.9131 21.5712 51.9131C21.4862 51.6523 21.4013 51.4783 21.3164 51.3044C19.1932 47.1305 16.9852 42.8697 14.862 38.6957C14.6922 38.261 14.4374 38.174 14.0128 38.174C9.59664 38.174 5.09558 38.174 0.679441 38.174C0.509589 38.174 0.339738 38.174 0.169887 38.174C0.0849609 42.7827 0.0849609 47.3044 0.0849609 51.9131ZM11.8896 32.9566C7.89812 25.2175 4.07647 17.6523 0.169887 10.087C0.169887 10.087 0.0849609 10.087 0.0849609 10.174C0.0849609 17.7392 0.0849609 25.3914 0.0849609 32.9566C3.99154 32.9566 7.8132 32.9566 11.8896 32.9566Z" fill="white"/>
<path d="M2.9724 0H36.518C38.4713 0 40 1.56522 40 3.56522V13.6522C39.7452 13.6522 39.4904 13.6522 39.2357 13.6522C31.9321 13.6522 24.7134 13.6522 17.4098 13.6522C16.3907 13.6522 15.6263 13.3913 14.862 12.8696C10.1911 10 5.43524 7.04348 0.764331 4.17391C0.169851 3.91304 0 3.65217 0 2.95652C0.0849257 1.30435 1.35881 0 2.9724 0Z" fill="#2E2E2E"/>
<path d="M4.41617 51.913C2.03825 51.913 0.0849609 49.913 0.0849609 47.4783V38.2609C0.254812 38.2609 0.424664 38.2609 0.594515 38.2609C5.01065 38.2609 10.5308 38.2609 15.0319 38.2609C15.8811 39.5652 21.9109 51.4783 22.0807 51.913H4.41617Z" fill="#2E2E2E"/>
<path d="M11.8896 32.9566C7.89812 32.9566 3.99154 32.9566 0.0849609 32.9566C0.0849609 25.3044 0.0849609 17.7392 0.0849609 10.174C0.0849609 10.174 0.169887 10.174 0.169887 10.087C4.07647 17.6523 7.89812 25.2175 11.8896 32.9566Z" fill="#2E2E2E"/>
<path d="M24.9678 18.8697C29.9784 18.8697 34.989 18.8697 39.9996 18.8697C39.9996 22.0002 39.9996 25.1306 39.9996 28.435C34.9041 25.3045 29.9784 22.1741 24.9678 19.0436C24.9678 18.9567 24.9678 18.9567 24.9678 18.8697Z" fill="#2E2E2E"/>
</svg>
