<svg width="187" height="41" viewBox="0 0 187 41" fill="none" xmlns="http://www.w3.org/2000/svg">
<path d="M0 30.9361V26.6049H11.0828V13.6112H0V0.235352H15.5414V4.56658H4.45861V9.40735H15.5414V31.0635H0V30.9361Z" fill="black"/>
<path d="M24.4586 30.9361V13.866H21.1465V9.53474H24.4586V0.235352H28.9172V9.53474H32.4841V13.866H28.9172V25.4584H32.4841V30.9361H24.4586Z" fill="black"/>
<path d="M37.834 30.936V17.3054H48.9168V13.8659H37.834V9.53467H53.3754V30.936H37.834ZM48.9168 21.5092H42.2926V26.6048H48.9168V21.5092Z" fill="black"/>
<path d="M58.8535 40.9997V36.6685H69.9364V30.8086H58.8535V9.53467H74.395V40.9997H58.8535ZM69.9364 13.8659H63.3121V26.6048H69.9364V13.8659Z" fill="black"/>
<path d="M79.873 30.936V9.53467H95.4145V21.5092H84.3317V26.6048H95.4145V30.936H79.873ZM91.0833 13.8659H84.459V17.3054H91.0833V13.8659Z" fill="black"/>
<path d="M123.185 30.9361V4.43919H116.561V30.8087H112.102V4.43919H105.606V30.8087H101.02V0.235352H127.771V30.9361H123.185Z" fill="black"/>
<path d="M133.121 30.936V17.3054H144.204V13.8659H133.121V9.53467H148.663V30.936H133.121ZM144.204 21.5092H137.58V26.6048H144.204V21.5092Z" fill="black"/>
<path d="M157.453 30.9361V13.866H154.141V9.53474H157.453V0.235352H161.911V9.53474H165.478V13.866H161.911V25.4584H165.478V30.9361H157.453Z" fill="black"/>
<path d="M170.956 30.936V9.53467H186.497V21.5092H175.415V26.6048H186.497V30.936H170.956ZM182.039 13.8659H175.415V17.3054H182.039V13.8659Z" fill="black"/>
</svg>
