<svg width="39" height="54" viewBox="0 0 39 54" fill="none" xmlns="http://www.w3.org/2000/svg">
<path d="M38.0559 14.027V3.6631C38.0559 1.60819 36.5207 0 34.7432 0H3.39375C1.53541 0 0.0810547 1.60819 0.0810547 3.6631V33.772H22.5428V39.3114H0.0810547V49.7646C0.0810547 51.8195 1.53541 53.4277 3.39375 53.4277H34.7432C36.6015 53.4277 38.0559 51.8195 38.0559 49.7646V19.3876H15.5942V14.027H38.0559Z" fill="#7B4CFA"/>
<path d="M2.82791 0H34.7429C36.6013 0 38.0556 1.60819 38.0556 3.6631V14.027C37.8132 14.027 37.5708 14.027 37.3284 14.027C30.3798 14.027 23.5121 14.027 16.5635 14.027C15.5939 14.027 14.8667 13.759 14.1396 13.2229C9.6957 10.2746 5.17104 7.23686 0.727177 4.28851C0.161595 4.02048 0 3.75245 0 3.0377C0.0807975 1.34016 1.29276 0 2.82791 0Z" fill="#2E2E2E"/>
<path d="M4.20173 53.3385C0.565839 53.3385 0.0810547 51.2836 0.0810547 48.782V39.3115C0.24265 39.3115 0.404245 39.3115 0.565839 39.3115C4.76731 39.3115 10.0191 39.3115 14.3014 39.3115C15.1094 40.6517 20.846 52.8918 21.0076 53.3385H4.20173Z" fill="#2E2E2E"/>
<path d="M11.3119 33.8612C7.51442 33.8612 3.79774 33.8612 0.0810547 33.8612C0.0810547 25.999 0.0810547 18.226 0.0810547 10.4531C0.0810547 10.4531 0.161852 10.4531 0.161852 10.3638C3.87854 18.1367 7.51442 25.9096 11.3119 33.8612Z" fill="#2E2E2E"/>
<path d="M23.7539 19.3877C28.521 19.3877 33.288 19.3877 38.0551 19.3877C38.0551 22.6041 38.0551 25.8205 38.0551 29.2155C33.2072 25.9992 28.521 22.7828 23.7539 19.5664C23.7539 19.477 23.7539 19.477 23.7539 19.3877Z" fill="#2E2E2E"/>
</svg>
