<svg width="145" height="35" viewBox="0 0 145 35" fill="none" xmlns="http://www.w3.org/2000/svg">
<path d="M23.5693 9.04364V2.36172C23.5693 1.03685 22.6185 0 21.5176 0H2.1015C0.95055 0 0.0498047 1.03685 0.0498047 2.36172V21.7739H13.9613V25.3452H0.0498047V32.0848C0.0498047 33.4096 0.95055 34.4465 2.1015 34.4465H21.5176C22.6685 34.4465 23.5693 33.4096 23.5693 32.0848V12.4998H9.65775V9.04364H23.5693Z" fill="#7B4CFA"/>
<path d="M1.75145 0H21.5178C22.6688 0 23.5695 1.03685 23.5695 2.36172V9.04364C23.4194 9.04364 23.2692 9.04364 23.1191 9.04364C18.8156 9.04364 14.562 9.04364 10.2585 9.04364C9.65799 9.04364 9.20762 8.87084 8.75724 8.52522C6.00497 6.62433 3.20265 4.66583 0.450373 2.76494C0.100083 2.59213 0 2.41932 0 1.9585C0.0500414 0.864043 0.800662 0 1.75145 0Z" fill="#2E2E2E"/>
<path d="M2.60192 34.3889C0.350053 34.3889 0.0498047 33.064 0.0498047 31.4511V25.3452C0.149887 25.3452 0.24997 25.3452 0.350053 25.3452C2.95221 25.3452 6.2049 25.3452 8.85709 25.3452C9.3575 26.2093 12.9104 34.1008 13.0105 34.3889H2.60192Z" fill="#2E2E2E"/>
<path d="M7.00556 21.8314C4.65361 21.8314 2.35171 21.8314 0.0498047 21.8314C0.0498047 16.7624 0.0498047 11.7509 0.0498047 6.73949C0.0498047 6.73949 0.0998461 6.73949 0.0998461 6.68188C2.40175 11.6933 4.65361 16.7048 7.00556 21.8314Z" fill="#2E2E2E"/>
<path d="M14.7119 12.5C17.6644 12.5 20.6168 12.5 23.5692 12.5C23.5692 14.5737 23.5692 16.6474 23.5692 18.8363C20.5668 16.7626 17.6644 14.6889 14.7119 12.6152C14.7119 12.5576 14.7119 12.5576 14.7119 12.5Z" fill="#2E2E2E"/>
<path d="M36.1299 27.0366V24.0527H42.5579V15.101H36.1299V5.88599H45.1439V8.8699H38.7159V12.2049H45.1439V27.1244H36.1299V27.0366Z" fill="black"/>
<path d="M50.3156 27.0366V15.2765H48.3945V12.2926H50.3156V5.88599H52.9015V12.2926H54.9703V15.2765H52.9015V23.2629H54.9703V27.0366H50.3156Z" fill="black"/>
<path d="M58.0742 27.0367V17.6462H64.5023V15.2766H58.0742V12.2927H67.0883V27.0367H58.0742ZM64.5023 20.5424H60.6602V24.0528H64.5023V20.5424Z" fill="black"/>
<path d="M70.2646 33.9699V30.986H76.6927V26.949H70.2646V12.2927H79.2787V33.9699H70.2646ZM76.6927 15.2766H72.8506V24.0528H76.6927V15.2766Z" fill="black"/>
<path d="M82.4561 27.0367V12.2927H91.4701V20.5424H85.042V24.0528H91.4701V27.0367H82.4561ZM88.958 15.2766H85.1159V17.6462H88.958V15.2766Z" fill="black"/>
<path d="M107.577 27.0366V8.78213H103.735V26.9489H101.149V8.78213H97.3806V26.9489H94.7207V5.88599H110.237V27.0366H107.577Z" fill="black"/>
<path d="M113.34 27.0367V17.6462H119.768V15.2766H113.34V12.2927H122.354V27.0367H113.34ZM119.768 20.5424H115.926V24.0528H119.768V20.5424Z" fill="black"/>
<path d="M127.452 27.0366V15.2765H125.531V12.2926H127.452V5.88599H130.038V12.2926H132.107V15.2765H130.038V23.2629H132.107V27.0366H127.452Z" fill="black"/>
<path d="M135.284 27.0367V12.2927H144.298V20.5424H137.87V24.0528H144.298V27.0367H135.284ZM141.712 15.2766H137.87V17.6462H141.712V15.2766Z" fill="black"/>
</svg>
