<svg width="30" height="30" viewBox="0 0 30 30" fill="none" xmlns="http://www.w3.org/2000/svg">
<path d="M10.0447 4.25684C11.8252 4.35144 13.6255 5.12612 15.0457 6.5498V6.55078L15.3503 6.85449L15.7039 7.20801L16.3611 6.55078V6.5498C19.2106 3.697 23.6147 3.46644 26.2 6.05469V6.05566C28.707 8.56442 28.575 12.7849 25.9724 15.6416L25.7126 15.9141L24.7507 16.876L16.0144 25.624C15.9324 25.7058 15.8206 25.752 15.7048 25.752C15.6181 25.7519 15.5338 25.7261 15.4626 25.6787L15.3962 25.624L6.65601 16.876L5.69409 15.9141C2.84301 13.0594 2.61584 8.64434 5.2019 6.05273L5.20288 6.05371C6.49921 4.75741 8.26714 4.16236 10.0447 4.25684Z" stroke="current"/>
</svg>
