<svg width="50" height="50" viewBox="0 0 50 50" fill="none" xmlns="http://www.w3.org/2000/svg">
<path fill-rule="evenodd" clip-rule="evenodd" d="M4.6875 25C4.6875 13.7855 13.7855 4.6875 25 4.6875C36.2145 4.6875 45.3125 13.7855 45.3125 25C45.3125 36.2145 36.2145 45.3125 25 45.3125C13.7855 45.3125 4.6875 36.2145 4.6875 25ZM25 7.8125C15.5114 7.8125 7.8125 15.5114 7.8125 25C7.8125 34.4886 15.5114 42.1875 25 42.1875C34.4886 42.1875 42.1875 34.4886 42.1875 25C42.1875 15.5114 34.4886 7.8125 25 7.8125Z" fill="currentColor"/>
<path fill-rule="evenodd" clip-rule="evenodd" d="M25 15.625C25.8629 15.625 26.5625 16.3246 26.5625 17.1875V32.8125C26.5625 33.6754 25.8629 34.375 25 34.375C24.1371 34.375 23.4375 33.6754 23.4375 32.8125V17.1875C23.4375 16.3246 24.1371 15.625 25 15.625Z" fill="currentColor"/>
<path fill-rule="evenodd" clip-rule="evenodd" d="M15.625 25C15.625 24.1371 16.3246 23.4375 17.1875 23.4375H32.8125C33.6754 23.4375 34.375 24.1371 34.375 25C34.375 25.8629 33.6754 26.5625 32.8125 26.5625H17.1875C16.3246 26.5625 15.625 25.8629 15.625 25Z" fill="currentColor"/>
</svg>
