<svg width="44" height="44" viewBox="0 0 44 44" fill="none" xmlns="http://www.w3.org/2000/svg">
<path d="M39.9551 36.6094H39.876L39.7969 36.6016C39.5286 36.5736 39.2656 36.5078 39.0157 36.4063L33.4746 34.4424L33.4356 34.4258C33.3157 34.3741 33.1862 34.3484 33.0557 34.3506C32.932 34.3503 32.8092 34.3725 32.6934 34.416C32.5616 34.4658 31.3487 34.9219 30.0743 35.2715C29.3838 35.461 26.9805 36.0791 25.0518 36.0791C20.1221 36.0791 15.5127 34.1846 12.0743 30.7442C10.3955 29.0754 9.06417 27.0904 8.15734 24.904C7.2505 22.7175 6.78612 20.3729 6.79105 18.0059C6.79225 16.7709 6.9255 15.5396 7.18852 14.333C8.04594 10.3692 10.3194 6.76076 13.5889 4.17677C16.9432 1.547 21.0835 0.120105 25.3457 0.125013C30.4444 0.125013 35.1954 2.07814 38.7246 5.61134C42.0606 8.95802 43.8887 13.3584 43.8741 18.001C43.8741 21.4525 42.8427 24.8254 40.9122 27.6865L40.8584 27.7617C40.8223 27.8096 40.7881 27.8594 40.7559 27.9131C40.71 27.9932 40.6778 28.0586 40.6582 28.1084L42.1944 33.5694C42.25 33.7571 42.2853 33.9503 42.2998 34.1455V34.2656C42.2998 34.5735 42.2392 34.8784 42.1213 35.1628C42.0035 35.4472 41.8308 35.7056 41.613 35.9233C41.3953 36.1409 41.1368 36.3135 40.8523 36.4313C40.5679 36.549 40.263 36.6095 39.9551 36.6094ZM34.5938 31.5264L38.7862 33.0117L37.5801 28.7266C37.3848 28.0176 37.544 27.2119 38.0586 26.3301L38.0684 26.3145C38.1517 26.1744 38.2424 26.0388 38.3399 25.9082C39.9084 23.5676 40.746 20.8137 40.7461 17.9961C40.7588 14.1875 39.253 10.5742 36.5079 7.81837C33.5723 4.87208 29.6133 3.25001 25.3457 3.25001C18.0664 3.25001 11.7149 8.19044 10.2422 14.9961C10.0265 15.9852 9.91719 16.9945 9.91605 18.0068C9.91605 26.25 16.7061 32.957 25.0528 32.957C26.2764 32.957 28.0801 32.582 29.252 32.2608C30.4063 31.9444 31.544 31.5137 31.5957 31.4961C32.5658 31.1292 33.6382 31.14 34.6006 31.5264H34.5938Z" fill="currentColor"/>
<path d="M4.02067 43.8751C3.48639 43.8746 2.96804 43.6932 2.54996 43.3605L2.51969 43.3361C2.19867 43.0668 1.9557 42.7165 1.81606 42.3214C1.67643 41.9264 1.64524 41.5012 1.72574 41.09C2.00504 39.6388 2.59293 36.5753 2.81364 35.4416V35.4357C1.18594 33.0108 0.260215 30.1832 0.138718 27.2652C0.0172207 24.3472 0.704682 21.4524 2.12516 18.9005C2.32666 18.5379 2.66395 18.2702 3.06283 18.1563C3.46172 18.0424 3.88951 18.0916 4.25211 18.2931C4.61471 18.4946 4.88242 18.8319 4.99633 19.2308C5.11024 19.6297 5.06104 20.0575 4.85953 20.4201C3.7121 22.4678 3.15643 24.7942 3.25455 27.1395C3.35267 29.4847 4.10073 31.7566 5.4152 33.7013L5.42106 33.7101C5.78141 34.2541 6.12614 34.9132 5.95914 35.6837C5.9191 35.8791 5.47086 38.1974 5.07047 40.2892L9.23942 38.6574C9.98953 38.3599 10.8266 38.3698 11.5695 38.6847C13.3517 39.3761 15.2013 39.7414 16.9211 39.7414H16.9357C19.3996 39.7381 21.8189 39.0846 23.9494 37.8468C24.1272 37.7442 24.3235 37.6777 24.527 37.6509C24.7305 37.6242 24.9374 37.6378 25.1356 37.691C25.3339 37.7442 25.5198 37.8359 25.6826 37.9609C25.8454 38.0859 25.982 38.2418 26.0846 38.4196C26.1872 38.5974 26.2538 38.7937 26.2805 38.9972C26.3073 39.2007 26.2937 39.4076 26.2405 39.6058C26.1873 39.8041 26.0956 39.99 25.9706 40.1528C25.8455 40.3156 25.6897 40.4522 25.5119 40.5548C22.9032 42.0665 19.9419 42.8632 16.9269 42.8644H16.9084C14.799 42.8644 12.549 42.422 10.4025 41.5861L10.3595 41.5685L4.90055 43.7013C4.62405 43.8169 4.3272 43.876 4.0275 43.8751H4.02067ZM4.79508 41.6759C4.79508 41.6759 4.79508 41.6759 4.79508 41.6837C4.79508 41.6916 4.7941 41.6779 4.79508 41.6759ZM2.8986 35.0099C2.8986 35.0207 2.8986 35.0314 2.89176 35.0421C2.89469 35.0275 2.89664 35.0168 2.8986 35.0099Z" fill="currentColor"/>
</svg>
