<svg width="50" height="50" viewBox="0 0 50 50" fill="none" xmlns="http://www.w3.org/2000/svg">
<path fill-rule="evenodd" clip-rule="evenodd" d="M7.8125 19.1406C8.67545 19.1406 9.375 19.8402 9.375 20.7031V43.75H17.1875V32.0312C17.1875 30.9952 17.599 30.0017 18.3316 29.2691C19.0642 28.5366 20.0577 28.125 21.0938 28.125H28.9062C29.9423 28.125 30.9358 28.5366 31.6684 29.2691C32.4009 30.0017 32.8125 30.9952 32.8125 32.0312V43.75H40.625V20.7031C40.625 19.8402 41.3246 19.1406 42.1875 19.1406C43.0504 19.1406 43.75 19.8402 43.75 20.7031V43.75C43.75 44.5788 43.4208 45.3737 42.8347 45.9597C42.2487 46.5458 41.4538 46.875 40.625 46.875H31.25C30.3871 46.875 29.6875 46.1754 29.6875 45.3125V32.0312C29.6875 31.8241 29.6052 31.6253 29.4587 31.4788C29.3122 31.3323 29.1134 31.25 28.9062 31.25H21.0938C20.8866 31.25 20.6878 31.3323 20.5413 31.4788C20.3948 31.6253 20.3125 31.824 20.3125 32.0312V45.3125C20.3125 46.1754 19.6129 46.875 18.75 46.875H9.375C8.5462 46.875 7.75134 46.5458 7.16529 45.9597C6.57924 45.3737 6.25 44.5788 6.25 43.75V20.7031C6.25 19.8402 6.94956 19.1406 7.8125 19.1406Z" fill="currentColor"/>
<path fill-rule="evenodd" clip-rule="evenodd" d="M27.1652 3.96952L47.9555 23.871C48.5788 24.4678 48.6004 25.4569 48.0037 26.0802C47.407 26.7036 46.4179 26.7252 45.7945 26.1285L25.0313 6.25283C25.0218 6.25199 25.0114 6.25148 25.0005 6.25147C24.9892 6.25144 24.9785 6.25194 24.9687 6.2528L4.20547 26.1285C3.5821 26.7252 2.59301 26.7036 1.99629 26.0802C1.39956 25.4569 1.42116 24.4678 2.04454 23.871L22.8361 3.96824C23.4735 3.32206 24.3421 3.12528 25.0061 3.12647C25.6674 3.12766 26.5329 3.32604 27.1652 3.96952Z" fill="currentColor"/>
<path fill-rule="evenodd" clip-rule="evenodd" d="M32.8125 6.25C32.8125 5.38706 33.5121 4.6875 34.375 4.6875H39.0625C39.9254 4.6875 40.625 5.38706 40.625 6.25V17.4805C40.625 18.3434 39.9254 19.043 39.0625 19.043C38.1996 19.043 37.5 18.3434 37.5 17.4805V7.8125H35.9375V12.9883C35.9375 13.8512 35.2379 14.5508 34.375 14.5508C33.5121 14.5508 32.8125 13.8512 32.8125 12.9883V6.25Z" fill="currentColor"/>
</svg>
