<svg width="50" height="50" viewBox="0 0 50 50" fill="none" xmlns="http://www.w3.org/2000/svg">
<path d="M44.5997 23.659L42.0528 23.2489C41.8883 23.2212 41.7371 23.1416 41.6211 23.0218C41.5051 22.9019 41.4305 22.7481 41.4083 22.5829C41.3594 22.2704 41.3106 21.9569 41.2422 21.6541C41.2092 21.4916 41.2282 21.3228 41.2966 21.1717C41.365 21.0206 41.4792 20.8948 41.6231 20.8123L43.878 19.5604C44.0487 19.4731 44.1816 19.3265 44.2517 19.1481C44.3219 18.9697 44.3244 18.7718 44.2588 18.5916L43.8682 17.5174C43.8029 17.3368 43.6728 17.1868 43.5032 17.0966C43.3336 17.0064 43.1366 16.9824 42.9503 17.0291L40.4219 17.5174C40.2576 17.5492 40.0873 17.5274 39.9363 17.4551C39.7852 17.3829 39.6614 17.264 39.5831 17.1161C39.4366 16.8426 39.2803 16.5689 39.1143 16.2948C39.0267 16.1522 38.9861 15.9858 38.9984 15.8189C39.0106 15.652 39.0751 15.4932 39.1827 15.3651L40.8712 13.4178C41.0021 13.2785 41.0774 13.096 41.0828 12.9048C41.0882 12.7137 41.0233 12.5272 40.9005 12.3807L40.169 11.5018C40.0471 11.354 39.8745 11.257 39.6848 11.2297C39.4952 11.2024 39.3022 11.2469 39.1436 11.3543L36.9278 12.6854C36.7854 12.7698 36.6198 12.8068 36.455 12.791C36.2901 12.7752 36.1346 12.7074 36.0108 12.5975C35.7764 12.3914 35.5323 12.1864 35.2881 11.9901C35.1583 11.8869 35.0646 11.7451 35.0207 11.5851C34.9768 11.4252 34.985 11.2554 35.044 11.1004L35.962 8.68344C36.0401 8.50808 36.0509 8.31011 35.9924 8.12729C35.9338 7.94446 35.81 7.78959 35.6446 7.69223L34.6485 7.11508C34.4823 7.02068 34.2872 6.99051 34.1002 7.03028C33.9132 7.07006 33.7473 7.17701 33.6338 7.3309L32.0088 9.36606C31.9181 9.49414 31.7868 9.5879 31.6362 9.63219C31.4856 9.67649 31.3244 9.66874 31.1788 9.6102C31.1788 9.6102 30.6319 9.38559 30.2217 9.24789C30.0644 9.19547 29.9279 9.09434 29.8318 8.95916C29.7358 8.82398 29.6853 8.66174 29.6876 8.49594L29.7266 5.91293C29.7381 5.72081 29.6789 5.53112 29.5602 5.37964C29.4415 5.22817 29.2714 5.12538 29.0821 5.09066L27.9503 4.89535C27.7608 4.86254 27.5659 4.90012 27.4022 5.00103C27.2385 5.10193 27.1174 5.25919 27.0616 5.4432L26.2217 7.88949C26.1679 8.04717 26.065 8.18349 25.9281 8.27854C25.7912 8.37359 25.6276 8.42239 25.461 8.41781H24.504C24.3376 8.42132 24.1744 8.3721 24.0378 8.2772C23.9011 8.1823 23.798 8.04658 23.7432 7.88949L22.9034 5.4432C22.8476 5.25919 22.7264 5.10193 22.5628 5.00103C22.3991 4.90012 22.2042 4.86254 22.0147 4.89535L20.8829 5.09066C20.6936 5.12538 20.5235 5.22817 20.4048 5.37964C20.286 5.53112 20.2268 5.72081 20.2383 5.91293L20.2774 8.49594C20.2798 8.66215 20.229 8.82479 20.1326 8.9602C20.0362 9.0956 19.8991 9.19673 19.7413 9.24887C19.5167 9.33676 19.0284 9.52328 18.794 9.61117C18.5206 9.70883 18.1983 9.6307 17.9346 9.32699L16.3223 7.34066C16.2083 7.18742 16.0422 7.08125 15.8552 7.0422C15.6683 7.00316 15.4735 7.03394 15.3077 7.12875L14.3116 7.7059C14.1457 7.80141 14.0211 7.95489 13.9616 8.1368C13.9021 8.31871 13.912 8.51619 13.9893 8.69125L14.9073 11.1082C14.9654 11.2634 14.973 11.4329 14.9292 11.5926C14.8854 11.7523 14.7923 11.8941 14.6631 11.9979C14.419 12.1932 14.1749 12.3993 13.9405 12.6053C13.8167 12.7152 13.6611 12.783 13.4963 12.7988C13.3315 12.8146 13.1659 12.7776 13.0235 12.6932L10.8399 11.3416C10.6805 11.2367 10.4882 11.1938 10.2993 11.221C10.1103 11.2481 9.93792 11.3435 9.81451 11.4891L9.08307 12.368C8.96019 12.5145 8.8953 12.701 8.9007 12.8921C8.9061 13.0833 8.98141 13.2658 9.11236 13.4051L10.8008 15.3524C10.9106 15.4794 10.9766 15.6385 10.9889 15.8059C11.0012 15.9734 10.9592 16.1403 10.8692 16.2821C10.7032 16.5425 10.5469 16.8162 10.4004 17.1034C10.3208 17.2502 10.1968 17.368 10.0461 17.4401C9.89546 17.5122 9.72587 17.5348 9.56158 17.5047L7.03326 17.0164C6.84699 16.971 6.65052 16.9957 6.48125 17.0857C6.31198 17.1757 6.18173 17.3249 6.11529 17.5047L5.72467 18.5789C5.65912 18.7591 5.66165 18.957 5.73179 19.1354C5.80193 19.3138 5.93484 19.4604 6.10553 19.5477L8.35748 20.8006C8.50288 20.8815 8.6184 21.007 8.68698 21.1586C8.75557 21.3102 8.77357 21.4798 8.73834 21.6424C8.67975 21.9549 8.62115 22.2586 8.57232 22.5711C8.54888 22.7359 8.47391 22.8891 8.35815 23.0087C8.24238 23.1284 8.09175 23.2083 7.92779 23.2371L5.38092 23.6473C5.19139 23.6707 5.01673 23.7619 4.88926 23.9041C4.76179 24.0462 4.69014 24.2298 4.68756 24.4207V25.5653C4.68519 25.7576 4.75513 25.9439 4.88354 26.0871C5.01194 26.2303 5.18945 26.3201 5.38092 26.3387L7.92779 26.7489C8.09224 26.7766 8.24352 26.8561 8.35949 26.976C8.47546 27.0958 8.55004 27.2496 8.57232 27.4149C8.62115 27.7274 8.66998 28.0409 8.73834 28.3436C8.77139 28.5061 8.75237 28.6749 8.684 28.8261C8.61563 28.9772 8.50138 29.1029 8.35748 29.1854L6.1026 30.4393C5.93192 30.5266 5.799 30.6732 5.72886 30.8516C5.65872 31.03 5.65619 31.2279 5.72174 31.408L6.11236 32.4823C6.17771 32.6629 6.30778 32.8129 6.47738 32.9031C6.64697 32.9933 6.84402 33.0173 7.03033 32.9705L9.55865 32.4823C9.72303 32.4504 9.89328 32.4723 10.0443 32.5445C10.1953 32.6168 10.3192 32.7357 10.3975 32.8836C10.544 33.1571 10.7003 33.4308 10.8663 33.7049C10.9539 33.8474 10.9945 34.0139 10.9822 34.1808C10.9699 34.3477 10.9055 34.5064 10.7979 34.6346L9.10943 36.5838C8.97848 36.7232 8.90317 36.9057 8.89777 37.0968C8.89237 37.288 8.95726 37.4744 9.08014 37.6209L9.81158 38.4998C9.93347 38.6477 10.1061 38.7447 10.2957 38.772C10.4854 38.7992 10.6784 38.7548 10.837 38.6473L13.0528 37.3162C13.1952 37.2318 13.3608 37.1949 13.5256 37.2107C13.6904 37.2265 13.846 37.2942 13.9698 37.4041C14.2042 37.6102 14.4483 37.8153 14.6924 38.0116C14.8223 38.1147 14.916 38.2566 14.9598 38.4165C15.0037 38.5764 14.9956 38.7462 14.9366 38.9012L14.0186 41.3182C13.9417 41.4938 13.9321 41.6915 13.9915 41.8737C14.0509 42.0559 14.1753 42.21 14.3409 42.3065L15.337 42.8836C15.5032 42.978 15.6983 43.0082 15.8853 42.9684C16.0723 42.9287 16.2382 42.8217 16.3516 42.6678L17.9913 40.6522C18.1963 40.3983 18.5284 40.2909 18.792 40.3983C19.1241 40.535 19.3487 40.6131 19.7588 40.7508C19.9167 40.803 20.0538 40.9041 20.1502 41.0395C20.2466 41.1749 20.2973 41.3375 20.295 41.5037L20.2559 44.0868C20.2444 44.2789 20.3036 44.4686 20.4223 44.62C20.5411 44.7715 20.7111 44.8743 20.9004 44.909L22.0323 45.1043C22.2217 45.1371 22.4167 45.0996 22.5803 44.9987C22.744 44.8978 22.8652 44.7405 22.921 44.5565L23.7608 42.1151C23.8147 41.9574 23.9176 41.8211 24.0544 41.726C24.1913 41.631 24.355 41.5822 24.5215 41.5868H25.4786C25.6449 41.5832 25.8081 41.6325 25.9447 41.7274C26.0814 41.8223 26.1845 41.958 26.2393 42.1151L27.0792 44.5565C27.135 44.7405 27.2561 44.8978 27.4198 44.9987C27.5834 45.0996 27.7784 45.1371 27.9678 45.1043L29.0997 44.909C29.289 44.8743 29.459 44.7715 29.5778 44.62C29.6965 44.4686 29.7557 44.2789 29.7442 44.0868L29.7051 41.5037C29.7028 41.3375 29.7535 41.1749 29.8499 41.0395C29.9463 40.9041 30.0834 40.803 30.2413 40.7508C30.6514 40.6131 30.9249 40.5057 31.1788 40.408C31.4327 40.3104 31.7452 40.3104 31.9893 40.6131L33.6495 42.658C33.7635 42.8124 33.9303 42.9195 34.1181 42.9587C34.306 42.998 34.5017 42.9668 34.668 42.8709L35.6641 42.2938C35.8308 42.1984 35.9562 42.0444 36.0157 41.8618C36.0753 41.6791 36.0648 41.4809 35.9864 41.3055L35.0684 38.8885C35.0104 38.7332 35.0028 38.5636 35.0466 38.4038C35.0904 38.2439 35.1835 38.1019 35.3126 37.9979C35.5567 37.8026 35.8008 37.5975 36.0352 37.3914C36.159 37.2815 36.3146 37.2138 36.4794 37.198C36.6442 37.1822 36.8098 37.2191 36.9522 37.3036L39.1602 38.6385C39.3196 38.7434 39.512 38.7863 39.7009 38.7592C39.8898 38.732 40.0622 38.6366 40.1856 38.4911L40.917 37.6121C41.0399 37.4656 41.1048 37.2792 41.0994 37.088C41.094 36.8969 41.0187 36.7144 40.8878 36.575L39.1993 34.6278C39.0895 34.5007 39.0236 34.3417 39.0112 34.1742C38.9989 34.0068 39.0409 33.8398 39.1309 33.6981C39.2969 33.4344 39.4532 33.1607 39.5997 32.8768C39.6793 32.73 39.8033 32.6121 39.954 32.54C40.1047 32.4679 40.2743 32.4453 40.4385 32.4754L42.9669 32.9637C43.1531 33.0091 43.3496 32.9845 43.5189 32.8945C43.6881 32.8044 43.8184 32.6553 43.8848 32.4754L44.2755 31.4012C44.341 31.2211 44.3385 31.0232 44.2683 30.8448C44.1982 30.6664 44.0653 30.5197 43.8946 30.4325L41.6397 29.1805C41.4943 29.0996 41.3788 28.9741 41.3102 28.8225C41.2416 28.6709 41.2236 28.5013 41.2588 28.3387C41.3174 28.0262 41.376 27.7225 41.4249 27.41C41.4483 27.2452 41.5233 27.092 41.639 26.9724C41.7548 26.8528 41.9054 26.7728 42.0694 26.744L44.6163 26.3338C44.8058 26.3105 44.9805 26.2193 45.1079 26.0771C45.2354 25.9349 45.307 25.7513 45.3096 25.5604V24.4139C45.299 24.2247 45.222 24.0452 45.0921 23.9072C44.9623 23.7691 44.7879 23.6812 44.5997 23.659ZM25.0001 10.9373C28.1192 10.936 31.15 11.973 33.6146 13.8848C36.0791 15.7966 37.8371 18.4744 38.6114 21.4959C38.669 21.7264 38.6733 21.9669 38.624 22.1992C38.5747 22.4315 38.4731 22.6496 38.3269 22.8367C38.1806 23.0239 37.9937 23.1753 37.7802 23.2794C37.5667 23.3834 37.3323 23.4375 37.0948 23.4373H26.8174C26.5414 23.4374 26.2703 23.3643 26.0317 23.2255C25.7931 23.0867 25.5955 22.8872 25.459 22.6473L20.3712 13.6912C20.2527 13.483 20.1837 13.2504 20.1695 13.0112C20.1552 12.7721 20.1962 12.5329 20.2892 12.3121C20.3822 12.0913 20.5247 11.8949 20.7057 11.7379C20.8867 11.581 21.1013 11.4678 21.3331 11.4071C22.53 11.093 23.7626 10.9351 25.0001 10.9373ZM10.9376 24.9998C10.9358 23.1169 11.3122 21.2528 12.0444 19.5181C12.7767 17.7834 13.8498 16.2134 15.2003 14.9012C15.3708 14.7324 15.5779 14.6051 15.8055 14.5293C16.0332 14.4534 16.2752 14.431 16.5129 14.4638C16.7506 14.4965 16.9776 14.5836 17.1762 14.7182C17.3748 14.8529 17.5398 15.0314 17.6583 15.2401L22.7598 24.2186C22.8946 24.4546 22.9655 24.7217 22.9655 24.9935C22.9655 25.2653 22.8946 25.5324 22.7598 25.7684L17.6163 34.7235C17.4969 34.9315 17.3312 35.1093 17.132 35.243C16.9328 35.3767 16.7055 35.4628 16.4678 35.4945C16.23 35.5262 15.9881 35.5028 15.7608 35.426C15.5336 35.3492 15.3271 35.2211 15.1573 35.0516C13.82 33.7415 12.7579 32.1776 12.0333 30.4515C11.3087 28.7253 10.9361 26.8719 10.9376 24.9998ZM25.0001 39.0623C23.7411 39.0656 22.4871 38.903 21.2706 38.5789C21.0389 38.5174 20.8245 38.4033 20.644 38.2456C20.4634 38.0879 20.3216 37.8908 20.2295 37.6695C20.1373 37.4482 20.0973 37.2087 20.1126 36.9694C20.1278 36.7302 20.1979 36.4977 20.3174 36.2899L25.4522 27.3495C25.5895 27.1116 25.7871 26.9141 26.0251 26.777C26.2631 26.6398 26.533 26.5678 26.8077 26.5682H37.0997C37.3371 26.5682 37.5714 26.6224 37.7848 26.7265C37.9981 26.8307 38.185 26.982 38.3311 27.1692C38.4772 27.3563 38.5787 27.5743 38.6279 27.8066C38.6772 28.0388 38.6729 28.2793 38.6153 28.5096C37.8395 31.5305 36.0803 34.2073 33.6151 36.118C31.15 38.0286 28.119 39.0645 25.0001 39.0623Z" fill="currentColor"/>
</svg>
