<svg width="31" height="32" viewBox="0 0 31 32" fill="none" xmlns="http://www.w3.org/2000/svg">
<path d="M3.30818 31.3125H3.24939C2.78514 31.3109 2.34052 31.125 2.01327 30.7957C1.68602 30.4664 1.5029 30.0206 1.50417 29.5564V29.4709C1.51579 29.3214 1.54258 29.1734 1.58416 29.0293L2.89324 24.2934C2.85933 24.1954 2.81582 24.1011 2.76335 24.0117C2.73119 23.9582 2.69628 23.9064 2.65876 23.8565L2.62117 23.8032C1.0306 21.3934 0.184253 18.5689 0.187573 15.6814C0.175268 11.746 1.71541 8.0252 4.52498 5.20537C7.42957 2.2919 11.3226 0.687501 15.4878 0.687501C19.0205 0.686192 22.4484 1.88781 25.2071 4.09453C27.9046 6.26563 29.779 9.28985 30.4838 12.6183C30.7009 13.6281 30.8111 14.6581 30.8126 15.691C30.8126 19.7201 29.2649 23.5038 26.4547 26.3469C23.6184 29.2146 19.8115 30.7943 15.7332 30.7943C14.2908 30.7943 12.4581 30.4279 11.5783 30.1791C10.4955 29.8756 9.44548 29.4723 9.40173 29.4552C9.28418 29.4099 9.15926 29.3867 9.03328 29.3868C8.89664 29.3858 8.76124 29.4128 8.63542 29.4661L8.58005 29.488L3.96853 31.1546C3.77619 31.2341 3.57333 31.2852 3.36628 31.3064L3.30818 31.3125ZM4.43406 22.5741C4.5113 22.6794 4.58445 22.7901 4.65144 22.9023L4.66033 22.918C5.05544 23.6091 5.18123 24.2312 5.03494 24.7637L3.90496 28.8516L7.81238 27.4413C8.57203 27.1306 9.4216 27.1213 10.1879 27.4153C10.2296 27.4317 11.1845 27.7995 12.1703 28.0743C13.0911 28.332 14.6538 28.6062 15.7359 28.6062C22.8453 28.6062 28.6278 22.8127 28.6278 15.691C28.6269 14.8114 28.5337 13.9343 28.3496 13.0742C27.0931 7.16319 21.6859 2.875 15.4878 2.875C11.9085 2.875 8.56501 4.25108 6.07468 6.74961C3.678 9.15381 2.36414 12.3243 2.37507 15.678C2.37233 18.1286 3.08819 20.5262 4.43406 22.5741Z" fill="#21272A"/>
<path d="M8.9375 18.1875C10.1456 18.1875 11.125 17.2081 11.125 16C11.125 14.7919 10.1456 13.8125 8.9375 13.8125C7.72938 13.8125 6.75 14.7919 6.75 16C6.75 17.2081 7.72938 18.1875 8.9375 18.1875Z" fill="#21272A"/>
<path d="M15.5 18.1875C16.7081 18.1875 17.6875 17.2081 17.6875 16C17.6875 14.7919 16.7081 13.8125 15.5 13.8125C14.2919 13.8125 13.3125 14.7919 13.3125 16C13.3125 17.2081 14.2919 18.1875 15.5 18.1875Z" fill="#21272A"/>
<path d="M22.0625 18.1875C23.2706 18.1875 24.25 17.2081 24.25 16C24.25 14.7919 23.2706 13.8125 22.0625 13.8125C20.8544 13.8125 19.875 14.7919 19.875 16C19.875 17.2081 20.8544 18.1875 22.0625 18.1875Z" fill="#21272A"/>
</svg>
