<svg width="61" height="60" viewBox="0 0 61 60" fill="none" xmlns="http://www.w3.org/2000/svg">
<path d="M28.53 40.0975L25.365 36.275C25.055 35.9033 24.6592 35.7258 24.1775 35.7425C23.6975 35.7592 23.3017 35.9533 22.99 36.325L20.51 39.6325C20.24 39.9842 20.1983 40.3417 20.385 40.705C20.5717 41.0667 20.8667 41.2475 21.27 41.2475H40.115C40.52 41.2475 40.815 41.0667 41 40.705C41.185 40.3433 41.16 39.985 40.925 39.63L35.4575 32.3425C35.3508 32.3242 35.2425 32.3 35.1325 32.27C35.0225 32.2417 34.9142 32.2083 34.8075 32.17L28.53 40.0975ZM14.54 50C13.3883 50 12.4275 49.615 11.6575 48.845C10.8875 48.075 10.5017 47.1133 10.5 45.96V14.04C10.5 12.8883 10.8858 11.9275 11.6575 11.1575C12.4292 10.3875 13.39 10.0017 14.54 10H24.25C24.6067 10 24.9042 10.1192 25.1425 10.3575C25.3808 10.5958 25.5 10.8933 25.5 11.25C25.5 11.6067 25.3808 11.9042 25.1425 12.1425C24.9042 12.3808 24.6067 12.5 24.25 12.5H14.54C14.155 12.5 13.8017 12.66 13.48 12.98C13.1583 13.3 12.9983 13.6533 13 14.04V45.9625C13 46.3458 13.16 46.6983 13.48 47.02C13.8 47.3417 14.1525 47.5017 14.5375 47.5H46.4625C46.8458 47.5 47.1983 47.34 47.52 47.02C47.8417 46.7 48.0017 46.3475 48 45.9625V36.4C48 36.0433 48.1192 35.7458 48.3575 35.5075C48.5958 35.2692 48.8933 35.15 49.25 35.15C49.6067 35.15 49.9042 35.2692 50.1425 35.5075C50.3808 35.7458 50.5 36.0433 50.5 36.4V45.9625C50.5 47.1125 50.115 48.0733 49.345 48.845C48.575 49.6167 47.6133 50.0017 46.46 50H14.54ZM40.7225 25C38.2792 25 36.215 24.155 34.53 22.465C32.8433 20.7717 32 18.7 32 16.25C32 13.8 32.8458 11.7292 34.5375 10.0375C36.2292 8.34583 38.3 7.5 40.75 7.5C43.2 7.5 45.2717 8.34583 46.965 10.0375C48.6583 11.7292 49.5033 13.8 49.5 16.25C49.5 17.2467 49.35 18.1942 49.05 19.0925C48.75 19.9908 48.3167 20.86 47.75 21.7L54.5875 28.5375C54.8208 28.7708 54.9458 29.0575 54.9625 29.3975C54.9792 29.7375 54.8542 30.04 54.5875 30.305C54.3208 30.57 54.0258 30.7033 53.7025 30.705C53.3792 30.7067 53.0842 30.5733 52.8175 30.305L45.855 23.345C45.0133 23.96 44.1967 24.3892 43.405 24.6325C42.6133 24.8758 41.7192 24.9983 40.7225 25ZM40.75 22.5C42.5 22.5 43.9792 21.8958 45.1875 20.6875C46.3958 19.4792 47 18 47 16.25C47 14.5 46.3958 13.0208 45.1875 11.8125C43.9792 10.6042 42.5 10 40.75 10C39 10 37.5208 10.6042 36.3125 11.8125C35.1042 13.0208 34.5 14.5 34.5 16.25C34.5 18 35.1042 19.4792 36.3125 20.6875C37.5208 21.8958 39 22.5 40.75 22.5Z" fill="#6449DD"/>
</svg>
