<svg width="38" height="48" viewBox="0 0 38 48" fill="none" xmlns="http://www.w3.org/2000/svg">
<path d="M25.5 20.25C23.5109 20.25 21.6032 19.4598 20.1967 18.0533C18.7902 16.6468 18 14.7391 18 12.75V2.75H8C6.67392 2.75 5.40215 3.27678 4.46447 4.21447C3.52678 5.15215 3 6.42392 3 7.75V40.25C3 41.5761 3.52678 42.8479 4.46447 43.7855C5.40215 44.7232 6.67392 45.25 8 45.25H30.5C31.8261 45.25 33.0979 44.7232 34.0355 43.7855C34.9732 42.8479 35.5 41.5761 35.5 40.25V20.25H25.5ZM20.5 12.75C20.5 14.0761 21.0268 15.3479 21.9645 16.2855C22.9021 17.2232 24.1739 17.75 25.5 17.75H34.475L20.5 3.775V12.75ZM8 0.25H20.5L38 17.75V40.25C38 42.2391 37.2098 44.1468 35.8033 45.5533C34.3968 46.9598 32.4891 47.75 30.5 47.75H8C6.01088 47.75 4.10322 46.9598 2.6967 45.5533C1.29018 44.1468 0.5 42.2391 0.5 40.25V7.75C0.5 5.76088 1.29018 3.85322 2.6967 2.4467C4.10322 1.04018 6.01088 0.25 8 0.25Z" fill="#6449DD"/>
</svg>
