<svg width="20" height="22" viewBox="0 0 20 22" fill="none" xmlns="http://www.w3.org/2000/svg">
<path d="M1.53846 20.4286H5V16.8929H1.53846V20.4286ZM5.76923 20.4286H9.61538V16.8929H5.76923V20.4286ZM1.53846 16.1071H5V12.1786H1.53846V16.1071ZM5.76923 16.1071H9.61538V12.1786H5.76923V16.1071ZM1.53846 11.3929H5V7.85714H1.53846V11.3929ZM10.3846 20.4286H14.2308V16.8929H10.3846V20.4286ZM5.76923 11.3929H9.61538V7.85714H5.76923V11.3929ZM15 20.4286H18.4615V16.8929H15V20.4286ZM10.3846 16.1071H14.2308V12.1786H10.3846V16.1071ZM6.15385 5.5V1.96429C6.15385 1.85789 6.11579 1.76581 6.03966 1.68806C5.96354 1.61031 5.8734 1.57143 5.76923 1.57143H5C4.89583 1.57143 4.80569 1.61031 4.72957 1.68806C4.65345 1.76581 4.61538 1.85789 4.61538 1.96429V5.5C4.61538 5.6064 4.65345 5.69847 4.72957 5.77623C4.80569 5.85398 4.89583 5.89286 5 5.89286H5.76923C5.8734 5.89286 5.96354 5.85398 6.03966 5.77623C6.11579 5.69847 6.15385 5.6064 6.15385 5.5ZM15 16.1071H18.4615V12.1786H15V16.1071ZM10.3846 11.3929H14.2308V7.85714H10.3846V11.3929ZM15 11.3929H18.4615V7.85714H15V11.3929ZM15.3846 5.5V1.96429C15.3846 1.85789 15.3466 1.76581 15.2704 1.68806C15.1943 1.61031 15.1042 1.57143 15 1.57143H14.2308C14.1266 1.57143 14.0365 1.61031 13.9603 1.68806C13.8842 1.76581 13.8462 1.85789 13.8462 1.96429V5.5C13.8462 5.6064 13.8842 5.69847 13.9603 5.77623C14.0365 5.85398 14.1266 5.89286 14.2308 5.89286H15C15.1042 5.89286 15.1943 5.85398 15.2704 5.77623C15.3466 5.69847 15.3846 5.6064 15.3846 5.5ZM20 4.71429V20.4286C20 20.8542 19.8478 21.2225 19.5433 21.5335C19.2388 21.8445 18.8782 22 18.4615 22H1.53846C1.12179 22 0.761218 21.8445 0.456731 21.5335C0.152244 21.2225 0 20.8542 0 20.4286V4.71429C0 4.28869 0.152244 3.92039 0.456731 3.60937C0.761218 3.29836 1.12179 3.14286 1.53846 3.14286H3.07692V1.96429C3.07692 1.42411 3.26522 0.961682 3.64183 0.577009C4.01843 0.192336 4.47115 0 5 0H5.76923C6.29808 0 6.7508 0.192336 7.1274 0.577009C7.50401 0.961682 7.69231 1.42411 7.69231 1.96429V3.14286H12.3077V1.96429C12.3077 1.42411 12.496 0.961682 12.8726 0.577009C13.2492 0.192336 13.7019 0 14.2308 0H15C15.5288 0 15.9816 0.192336 16.3582 0.577009C16.7348 0.961682 16.9231 1.42411 16.9231 1.96429V3.14286H18.4615C18.8782 3.14286 19.2388 3.29836 19.5433 3.60937C19.8478 3.92039 20 4.28869 20 4.71429Z" fill="#6449DD"/>
</svg>
