<svg width="22" height="16" viewBox="0 0 22 16" fill="none" xmlns="http://www.w3.org/2000/svg">
<path d="M1.55008 9.406C1.27808 9.033 1.14208 8.846 1.04808 8.486C0.984623 8.16544 0.984623 7.83556 1.04808 7.515C1.14208 7.154 1.27808 6.967 1.55008 6.595C3.03908 4.55 6.30308 1 11.0001 1C15.6971 1 18.9611 4.55 20.4501 6.594C20.7221 6.967 20.8581 7.154 20.9521 7.514C21.0155 7.83456 21.0155 8.16444 20.9521 8.485C20.8581 8.846 20.7221 9.033 20.4501 9.405C18.9611 11.45 15.6971 15 11.0001 15C6.30308 15 3.03908 11.45 1.55008 9.406Z" stroke="black" stroke-width="1.5" stroke-linecap="round" stroke-linejoin="round"/>
<path d="M11 10C11.5304 10 12.0391 9.78929 12.4142 9.41421C12.7893 9.03914 13 8.53043 13 8C13 7.46957 12.7893 6.96086 12.4142 6.58579C12.0391 6.21071 11.5304 6 11 6C10.4696 6 9.96086 6.21071 9.58579 6.58579C9.21071 6.96086 9 7.46957 9 8C9 8.53043 9.21071 9.03914 9.58579 9.41421C9.96086 9.78929 10.4696 10 11 10Z" stroke="black" stroke-width="1.5" stroke-linecap="round" stroke-linejoin="round"/>
</svg>
