<svg width="600" height="297" viewBox="0 0 601 297" fill="none" xmlns="http://www.w3.org/2000/svg">
<g clip-path="url(#clip0_1350_3140)">
<path d="M0.219727 0.000244141H600.22V259.642C600.22 280.275 582.311 297 560.22 297H40.2197C18.1283 297 0.219727 280.275 0.219727 259.642V0.000244141Z" fill="#6449DD"/>
<mask id="mask0_1350_3140" style="mask-type:alpha" maskUnits="userSpaceOnUse" x="0" y="0" width="600" height="297">
<path d="M0 0.000244141H600V259.642C600 280.275 582.091 297 560 297H40C17.9086 297 0 280.275 0 259.642V0.000244141Z" fill="#6449DD"/>
</mask>
<g mask="url(#mask0_1350_3140)">
<path d="M-147 72.3687L198.809 -138.226L527.5 344.292L118.451 452.586L-147 72.3687Z" fill="url(#paint0_linear_1350_3140)"/>
</g>
<mask id="mask1_1350_3140" style="mask-type:alpha" maskUnits="userSpaceOnUse" x="0" y="21" width="600" height="276">
<mask id="mask2_1350_3140" style="mask-type:alpha" maskUnits="userSpaceOnUse" x="0" y="0" width="600" height="297">
<path d="M0 0H600V259.642C600 280.274 582.091 297 560 297H40C17.9086 297 0 280.274 0 259.642V0Z" fill="#6449DD"/>
</mask>
<g mask="url(#mask2_1350_3140)">
<path d="M-13 331.557L642.001 21.481L627 309.142L118.452 452.586L-13 331.557Z" fill="#7E62FD"/>
</g>
</mask>
<g mask="url(#mask1_1350_3140)">
<path d="M662 -19.6133V45.7641L619 410.009L-62 355.84L662 -19.6133Z" fill="url(#paint1_linear_1350_3140)"/>
</g>
</g>
<defs>
<linearGradient id="paint0_linear_1350_3140" x1="402.735" y1="420.273" x2="170.753" y2="-91.9168" gradientUnits="userSpaceOnUse">
<stop stop-color="#302075"/>
<stop offset="1" stop-color="#5A3DDB"/>
</linearGradient>
<linearGradient id="paint1_linear_1350_3140" x1="662" y1="195.198" x2="-62" y2="195.198" gradientUnits="userSpaceOnUse">
<stop offset="0.408654" stop-color="#7E62FD"/>
<stop offset="0.927885" stop-color="#4B3B97"/>
</linearGradient>
<clipPath id="clip0_1350_3140">
<rect width="601" height="297" fill="white"/>
</clipPath>
</defs>
</svg>
