<svg width="40" height="24" viewBox="0 0 40 24" fill="none" xmlns="http://www.w3.org/2000/svg">
<path d="M28.3332 9.17C28.0209 8.98375 27.5985 8.87921 27.1582 8.87921C26.7179 8.87921 26.2954 8.98375 25.9832 9.17L19.9998 12.71L14.0998 9.17C13.7876 8.98375 13.3651 8.87921 12.9248 8.87921C12.4845 8.87921 12.0621 8.98375 11.7498 9.17C11.5936 9.26297 11.4696 9.37357 11.385 9.49543C11.3004 9.61729 11.2568 9.74799 11.2568 9.88C11.2568 10.012 11.3004 10.1427 11.385 10.2646C11.4696 10.3864 11.5936 10.497 11.7498 10.59L18.8165 14.83C18.9714 14.9237 19.1558 14.9981 19.3589 15.0489C19.562 15.0997 19.7798 15.1258 19.9998 15.1258C20.2199 15.1258 20.4377 15.0997 20.6408 15.0489C20.8439 14.9981 21.0282 14.9237 21.1832 14.83L28.3332 10.59C28.4894 10.497 28.6134 10.3864 28.698 10.2646C28.7826 10.1427 28.8262 10.012 28.8262 9.88C28.8262 9.74799 28.7826 9.61729 28.698 9.49543C28.6134 9.37357 28.4894 9.26297 28.3332 9.17Z" fill="#1B1B1B"/>
</svg>
