<svg width="40" height="24" viewBox="0 0 40 24" fill="none" xmlns="http://www.w3.org/2000/svg">
<path d="M28.3332 13.41L21.1832 9.17C21.0282 9.07628 20.8439 9.00188 20.6408 8.95111C20.4377 8.90035 20.2199 8.87421 19.9998 8.87421C19.7798 8.87421 19.562 8.90035 19.3589 8.95111C19.1558 9.00188 18.9714 9.07628 18.8165 9.17L11.7498 13.41C11.5936 13.503 11.4696 13.6136 11.385 13.7354C11.3004 13.8573 11.2568 13.988 11.2568 14.12C11.2568 14.252 11.3004 14.3827 11.385 14.5046C11.4696 14.6264 11.5936 14.737 11.7498 14.83C12.0621 15.0163 12.4845 15.1208 12.9248 15.1208C13.3651 15.1208 13.7876 15.0163 14.0998 14.83L19.9998 11.29L25.8998 14.83C26.2103 15.0147 26.6293 15.1189 27.0665 15.12C27.2858 15.1208 27.5033 15.0955 27.7063 15.0458C27.9094 14.996 28.0941 14.9227 28.2498 14.83C28.4116 14.7404 28.5422 14.6324 28.6341 14.5123C28.7259 14.3923 28.7772 14.2625 28.7849 14.1304C28.7927 13.9984 28.7567 13.8667 28.6792 13.7431C28.6017 13.6194 28.4841 13.5062 28.3332 13.41Z" fill="#1B1B1B"/>
</svg>
